<?xml version="1.0" encoding="UTF-8"?>
<!DOCTYPE svg PUBLIC "-//W3C//DTD SVG 1.1//EN" "http://www.w3.org/Graphics/SVG/1.1/DTD/svg11.dtd">
<svg xmlns="http://www.w3.org/2000/svg" version="1.1" width="500px" height="500px" style="shape-rendering:geometricPrecision; text-rendering:geometricPrecision; image-rendering:optimizeQuality; fill-rule:evenodd; clip-rule:evenodd" xmlns:xlink="http://www.w3.org/1999/xlink">
<g><path style="opacity:1" fill="#feacf6" d="M 234.5,-0.5 C 244.167,-0.5 253.833,-0.5 263.5,-0.5C 263.881,0.931117 264.881,1.76445 266.5,2C 284.402,3.58588 302.069,6.08588 319.5,9.5C 326.949,11.4274 334.283,13.7607 341.5,16.5C 341.369,17.3764 341.702,18.0431 342.5,18.5C 348.743,21.692 355.076,24.692 361.5,27.5C 361.5,28.8333 361.5,30.1667 361.5,31.5C 357.361,32.2958 354.195,30.9625 352,27.5C 351.51,28.7932 351.343,30.1266 351.5,31.5C 348.886,31.7229 347.219,30.5562 346.5,28C 344.19,27.5034 341.857,27.3367 339.5,27.5C 339.99,29.9484 339.157,31.615 337,32.5C 280.665,32.1166 224.331,31.1166 168,29.5C 163.754,29.7124 159.754,30.0457 156,30.5C 152.279,29.0566 148.779,27.2232 145.5,25C 146,24.5 146.5,24 147,23.5C 149.312,25.4641 151.812,25.7974 154.5,24.5C 150.58,24.151 149.914,22.8177 152.5,20.5C 156.541,18.9945 160.541,17.4945 164.5,16C 165.381,15.2917 166.047,14.4584 166.5,13.5C 166.833,13.5 167.167,13.5 167.5,13.5C 175.929,12.5213 183.929,10.3546 191.5,7C 194.833,6.66667 198.167,6.33333 201.5,6C 202.381,5.2917 203.047,4.45837 203.5,3.5C 204.167,3.5 204.833,3.5 205.5,3.5C 214.163,3.01982 222.83,2.51982 231.5,2C 233.119,1.76445 234.119,0.931117 234.5,-0.5 Z"/></g>
<g><path style="opacity:1" fill="#f6bef1" d="M 263.5,-0.5 C 266.833,-0.5 270.167,-0.5 273.5,-0.5C 282.026,0.98911 290.693,2.48911 299.5,4C 306.456,5.23594 313.122,7.06928 319.5,9.5C 302.069,6.08588 284.402,3.58588 266.5,2C 264.881,1.76445 263.881,0.931117 263.5,-0.5 Z"/></g>
<g><path style="opacity:1" fill="#f4bdf0" d="M 225.5,-0.5 C 228.5,-0.5 231.5,-0.5 234.5,-0.5C 234.119,0.931117 233.119,1.76445 231.5,2C 222.83,2.51982 214.163,3.01982 205.5,3.5C 212.136,2.00397 218.803,0.670633 225.5,-0.5 Z"/></g>
<g><path style="opacity:1" fill="#f7bcf2" d="M 203.5,3.5 C 203.047,4.45837 202.381,5.2917 201.5,6C 198.167,6.33333 194.833,6.66667 191.5,7C 183.929,10.3546 175.929,12.5213 167.5,13.5C 178.959,8.63235 190.959,5.29902 203.5,3.5 Z"/></g>
<g><path style="opacity:1" fill="#f5c5ee" d="M 341.5,16.5 C 352.092,20.4627 362.092,25.4627 371.5,31.5C 367.923,30.7092 364.59,29.3759 361.5,27.5C 355.076,24.692 348.743,21.692 342.5,18.5C 341.702,18.0431 341.369,17.3764 341.5,16.5 Z"/></g>
<g><path style="opacity:1" fill="#feaff3" d="M 166.5,13.5 C 166.047,14.4584 165.381,15.2917 164.5,16C 160.541,17.4945 156.541,18.9945 152.5,20.5C 149.914,22.8177 150.58,24.151 154.5,24.5C 151.812,25.7974 149.312,25.4641 147,23.5C 146.5,24 146,24.5 145.5,25C 148.779,27.2232 152.279,29.0566 156,30.5C 159.754,30.0457 163.754,29.7124 168,29.5C 224.331,31.1166 280.665,32.1166 337,32.5C 339.157,31.615 339.99,29.9484 339.5,27.5C 341.857,27.3367 344.19,27.5034 346.5,28C 347.219,30.5562 348.886,31.7229 351.5,31.5C 351.343,30.1266 351.51,28.7932 352,27.5C 354.195,30.9625 357.361,32.2958 361.5,31.5C 361.5,30.1667 361.5,28.8333 361.5,27.5C 364.59,29.3759 367.923,30.7092 371.5,31.5C 371.833,31.5 372.167,31.5 372.5,31.5C 373.791,33.6186 375.625,35.2853 378,36.5C 378.49,37.7932 378.657,39.1266 378.5,40.5C 374.599,39.8571 371.266,40.8571 368.5,43.5C 367.692,43.1924 367.025,42.6924 366.5,42C 285.5,41.3333 204.5,41.3333 123.5,42C 121.967,45.7186 119.801,46.5519 117,44.5C 115.701,44.9662 114.201,44.9662 112.5,44.5C 112.5,43.5 112.5,42.5 112.5,41.5C 114.199,41.6602 115.866,41.4935 117.5,41C 119.809,38.5134 122.476,36.5134 125.5,35C 126.823,34.1841 127.489,33.0174 127.5,31.5C 139.71,23.9765 152.71,17.9765 166.5,13.5 Z"/></g>
<g><path style="opacity:1" fill="#feb2f0" d="M 127.5,31.5 C 127.489,33.0174 126.823,34.1841 125.5,35C 122.476,36.5134 119.809,38.5134 117.5,41C 115.866,41.4935 114.199,41.6602 112.5,41.5C 112.5,42.5 112.5,43.5 112.5,44.5C 114.201,44.9662 115.701,44.9662 117,44.5C 119.801,46.5519 121.967,45.7186 123.5,42C 204.5,41.3333 285.5,41.3333 366.5,42C 367.025,42.6924 367.692,43.1924 368.5,43.5C 371.266,40.8571 374.599,39.8571 378.5,40.5C 378.657,39.1266 378.49,37.7932 378,36.5C 375.625,35.2853 373.791,33.6186 372.5,31.5C 380.053,35.4356 387.053,40.1023 393.5,45.5C 393.36,47.1238 394.027,48.2904 395.5,49C 395.167,49.3333 394.833,49.6667 394.5,50C 400.575,51.7828 405.742,54.9495 410,59.5C 410.483,60.448 410.649,61.448 410.5,62.5C 411.833,62.5 413.167,62.5 414.5,62.5C 414.216,64.4147 414.549,66.0813 415.5,67.5C 373.512,69.3292 331.179,70.1625 288.5,70C 287.975,70.6924 287.308,71.1924 286.5,71.5C 281.051,68.8735 276.051,68.8735 271.5,71.5C 269.459,71.8541 267.626,71.8541 266,71.5C 264.513,72.2529 264.346,73.0862 265.5,74C 263.654,75.0298 261.987,76.1964 260.5,77.5C 259.399,76.1516 258.399,74.6516 257.5,73C 261.227,70.0139 265.561,68.6805 270.5,69C 271.939,66.695 271.439,64.8616 269,63.5C 266.272,64.5565 263.272,65.8899 260,67.5C 257.964,66.0491 256.131,66.5491 254.5,69C 201.833,69.6667 149.167,69.6667 96.5,69C 95.8095,67.9326 95.3095,66.7659 95,65.5C 92.1667,67.6667 89.6667,70.1667 87.5,73C 86.2068,73.49 84.8734,73.6567 83.5,73.5C 83.3398,71.8008 83.5065,70.1341 84,68.5C 84.7253,70.158 85.892,70.658 87.5,70C 86.8333,69.6667 86.1667,69.3333 85.5,69C 85.5979,67.7153 85.5979,66.5486 85.5,65.5C 87.8505,63.6408 89.6838,61.3075 91,58.5C 94.2066,57.7454 95.7066,55.7454 95.5,52.5C 105.132,44.0112 115.798,37.0112 127.5,31.5 Z"/></g>
<g><path style="opacity:1" fill="#feb5ed" d="M 260.5,77.5 C 259.949,79.8652 259.116,82.1985 258,84.5C 257.51,83.2068 257.343,81.8734 257.5,80.5C 241.198,81.2894 224.865,81.7894 208.5,82C 207.62,83.3561 207.286,84.8561 207.5,86.5C 204.197,86.3104 201.197,85.3104 198.5,83.5C 198.389,82.8826 198.056,82.3826 197.5,82C 193.911,81.7931 190.411,81.2931 187,80.5C 183.901,82.9619 180.735,85.2953 177.5,87.5C 174.969,88.231 174.969,87.731 177.5,86C 176.061,85.0094 175.061,83.676 174.5,82C 143.167,81.6667 111.833,81.3333 80.5,81C 82.5951,80.4444 82.7618,79.9444 81,79.5C 77.4537,80.7187 74.4537,82.7187 72,85.5C 67.9195,83.3673 67.7528,81.034 71.5,78.5C 74.0227,80.0712 76.0227,79.5712 77.5,77C 73.4324,77.8065 72.5991,76.3065 75,72.5C 78.2117,69.668 81.7117,67.3347 85.5,65.5C 85.5979,66.5486 85.5979,67.7153 85.5,69C 86.1667,69.3333 86.8333,69.6667 87.5,70C 85.892,70.658 84.7253,70.158 84,68.5C 83.5065,70.1341 83.3398,71.8008 83.5,73.5C 84.8734,73.6567 86.2068,73.49 87.5,73C 89.6667,70.1667 92.1667,67.6667 95,65.5C 95.3095,66.7659 95.8095,67.9326 96.5,69C 149.167,69.6667 201.833,69.6667 254.5,69C 256.131,66.5491 257.964,66.0491 260,67.5C 263.272,65.8899 266.272,64.5565 269,63.5C 271.439,64.8616 271.939,66.695 270.5,69C 265.561,68.6805 261.227,70.0139 257.5,73C 258.399,74.6516 259.399,76.1516 260.5,77.5 Z"/></g>
<g><path style="opacity:1" fill="#feb5ed" d="M 415.5,67.5 C 421.121,70.4936 426.121,74.1602 430.5,78.5C 430.5,79.5 430.5,80.5 430.5,81.5C 388.5,81.5 346.5,81.5 304.5,81.5C 303.95,85.3389 302.95,85.3389 301.5,81.5C 302,80.5 302.5,79.5 303,78.5C 340.1,79.8291 377.267,79.8291 414.5,78.5C 374.838,77.3334 335.171,77.1667 295.5,78C 297.62,79.5227 297.953,81.3561 296.5,83.5C 298.623,85.7454 299.623,88.4121 299.5,91.5C 298.5,91.5 297.5,91.5 296.5,91.5C 294.768,87.6818 293.268,83.6818 292,79.5C 290.933,78.8095 289.766,78.3095 288.5,78C 287.624,75.8542 286.291,74.0208 284.5,72.5C 280.235,71.5614 275.902,71.2281 271.5,71.5C 276.051,68.8735 281.051,68.8735 286.5,71.5C 287.308,71.1924 287.975,70.6924 288.5,70C 331.179,70.1625 373.512,69.3292 415.5,67.5 Z"/></g>
<g><path style="opacity:1" fill="#0d060b" d="M 288.5,92.5 C 283.675,98.4499 277.341,101.617 269.5,102C 268.944,102.383 268.611,102.883 268.5,103.5C 266.607,108.335 266.274,113.335 267.5,118.5C 267.316,121.477 267.316,124.144 267.5,126.5C 267.183,130.702 267.517,134.702 268.5,138.5C 270.015,141.938 268.848,144.272 265,145.5C 262.144,145.422 260.31,144.089 259.5,141.5C 257.902,124.049 257.569,107.049 258.5,90.5C 260.804,86.5683 263.138,82.5683 265.5,78.5C 270.789,74.241 276.789,72.9077 283.5,74.5C 285.339,76.8378 287.339,79.0045 289.5,81C 290.841,85.0777 290.508,88.911 288.5,92.5 Z"/></g>
<g><path style="opacity:1" fill="#fdb7ea" d="M 393.5,45.5 C 398.268,48.4198 402.934,51.5865 407.5,55C 413.833,60.6667 420.167,66.3333 426.5,72C 433.111,78.7666 439.111,85.9333 444.5,93.5C 445.759,98.85 448.759,104.017 453.5,109C 452.833,109.667 452.167,110.333 451.5,111C 452.808,111.824 454.308,112.324 456,112.5C 457.948,115.64 458.948,118.973 459,122.5C 456.757,122.557 454.59,123.557 452.5,125.5C 451.217,122.628 451.217,119.795 452.5,117C 451.838,113.853 450.505,111.019 448.5,108.5C 442.872,107.505 437.206,107.171 431.5,107.5C 431.5,108.833 431.5,110.167 431.5,111.5C 415.167,111.5 398.833,111.5 382.5,111.5C 382.819,105.812 381.152,100.812 377.5,96.5C 372.329,94.5688 366.995,94.0688 361.5,95C 360.244,95.4169 359.577,96.2502 359.5,97.5C 356.48,100.189 353.48,102.856 350.5,105.5C 348.321,105.84 346.488,106.84 345,108.5C 343.807,115.835 340.974,116.502 336.5,110.5C 318.201,111.82 299.868,111.82 281.5,110.5C 283.216,110.003 284.883,109.669 286.5,109.5C 287.429,108.311 287.762,106.978 287.5,105.5C 285.396,105.201 283.396,105.534 281.5,106.5C 280.788,108.046 279.622,109.046 278,109.5C 275.144,108.423 272.311,108.256 269.5,109C 270.293,107.915 270.96,106.748 271.5,105.5C 274.897,104.828 278.23,103.995 281.5,103C 282.329,100.177 284.162,98.3435 287,97.5C 287.608,95.8455 288.108,94.1789 288.5,92.5C 290.508,88.911 290.841,85.0777 289.5,81C 287.339,79.0045 285.339,76.8378 283.5,74.5C 276.789,72.9077 270.789,74.241 265.5,78.5C 263.138,82.5683 260.804,86.5683 258.5,90.5C 257.892,95.5545 256.558,100.554 254.5,105.5C 255.767,107.371 255.767,109.204 254.5,111C 239.167,111.667 223.833,111.667 208.5,111C 206.613,107.059 205.613,102.892 205.5,98.5C 205.699,95.059 205.199,91.7256 204,88.5C 201.672,87.3365 199.838,85.6698 198.5,83.5C 201.197,85.3104 204.197,86.3104 207.5,86.5C 207.286,84.8561 207.62,83.3561 208.5,82C 224.865,81.7894 241.198,81.2894 257.5,80.5C 257.343,81.8734 257.51,83.2068 258,84.5C 259.116,82.1985 259.949,79.8652 260.5,77.5C 261.987,76.1964 263.654,75.0298 265.5,74C 264.346,73.0862 264.513,72.2529 266,71.5C 267.626,71.8541 269.459,71.8541 271.5,71.5C 275.902,71.2281 280.235,71.5614 284.5,72.5C 286.291,74.0208 287.624,75.8542 288.5,78C 289.766,78.3095 290.933,78.8095 292,79.5C 293.268,83.6818 294.768,87.6818 296.5,91.5C 297.5,91.5 298.5,91.5 299.5,91.5C 299.623,88.4121 298.623,85.7454 296.5,83.5C 297.953,81.3561 297.62,79.5227 295.5,78C 335.171,77.1667 374.838,77.3334 414.5,78.5C 377.267,79.8291 340.1,79.8291 303,78.5C 302.5,79.5 302,80.5 301.5,81.5C 302.95,85.3389 303.95,85.3389 304.5,81.5C 346.5,81.5 388.5,81.5 430.5,81.5C 430.5,80.5 430.5,79.5 430.5,78.5C 426.121,74.1602 421.121,70.4936 415.5,67.5C 414.549,66.0813 414.216,64.4147 414.5,62.5C 413.167,62.5 411.833,62.5 410.5,62.5C 410.649,61.448 410.483,60.448 410,59.5C 405.742,54.9495 400.575,51.7828 394.5,50C 394.833,49.6667 395.167,49.3333 395.5,49C 394.027,48.2904 393.36,47.1238 393.5,45.5 Z"/></g>
<g><path style="opacity:1" fill="#feb8ea" d="M 95.5,52.5 C 95.7066,55.7454 94.2066,57.7454 91,58.5C 89.6838,61.3075 87.8505,63.6408 85.5,65.5C 81.7117,67.3347 78.2117,69.668 75,72.5C 72.5991,76.3065 73.4324,77.8065 77.5,77C 76.0227,79.5712 74.0227,80.0712 71.5,78.5C 67.7528,81.034 67.9195,83.3673 72,85.5C 74.4537,82.7187 77.4537,80.7187 81,79.5C 82.7618,79.9444 82.5951,80.4444 80.5,81C 111.833,81.3333 143.167,81.6667 174.5,82C 175.061,83.676 176.061,85.0094 177.5,86C 174.969,87.731 174.969,88.231 177.5,87.5C 177.822,89.7224 177.155,91.5557 175.5,93C 176.056,93.3826 176.389,93.8826 176.5,94.5C 175.284,99.9491 174.617,105.449 174.5,111C 169.467,111.829 164.467,111.662 159.5,110.5C 157.833,108.833 156.167,107.167 154.5,105.5C 153.833,107.5 153.167,109.5 152.5,111.5C 151.989,109.116 150.989,107.116 149.5,105.5C 148.766,104.292 148.433,102.959 148.5,101.5C 143.187,100.638 137.854,100.471 132.5,101C 131.748,101.671 131.414,102.504 131.5,103.5C 130.713,105.104 129.38,105.771 127.5,105.5C 125.801,105.34 124.134,105.506 122.5,106C 121.167,106.667 121.167,107.333 122.5,108C 119.771,108.005 117.771,109.171 116.5,111.5C 115.43,108.124 114.264,104.79 113,101.5C 111.595,104.619 111.095,107.952 111.5,111.5C 94.8333,111.5 78.1667,111.5 61.5,111.5C 60.5831,105.174 57.5831,104.007 52.5,108C 51.6634,109.011 51.33,110.178 51.5,111.5C 49.076,111.808 46.7427,111.474 44.5,110.5C 45.9983,108.146 47.3317,105.813 48.5,103.5C 50.9099,103.079 52.7432,101.746 54,99.5C 57.2936,90.1887 62.9603,82.522 71,76.5C 72.0945,74.9221 72.9278,73.2554 73.5,71.5C 80.2179,64.4484 87.5513,58.115 95.5,52.5 Z"/></g>
<g><path style="opacity:1" fill="#0b0609" d="M 198.5,83.5 C 199.838,85.6698 201.672,87.3365 204,88.5C 205.199,91.7256 205.699,95.059 205.5,98.5C 202.922,106.239 197.589,111.073 189.5,113C 192.122,124.658 195.122,136.158 198.5,147.5C 199.441,149.05 200.107,150.716 200.5,152.5C 199.596,153.209 199.263,154.209 199.5,155.5C 196.033,157.12 192.366,158.287 188.5,159C 175.816,164.764 163.65,171.264 152,178.5C 150.395,177.899 149.062,176.899 148,175.5C 146.587,170.883 144.253,166.883 141,163.5C 136.489,153.98 131.989,144.647 127.5,135.5C 126.064,129.692 124.731,123.858 123.5,118C 123.403,113.257 124.736,109.09 127.5,105.5C 129.38,105.771 130.713,105.104 131.5,103.5C 133.816,102.84 136.149,102.173 138.5,101.5C 140.782,102.223 143.116,102.557 145.5,102.5C 147.13,107.012 148.464,111.678 149.5,116.5C 148.257,123.897 144.257,129.064 137.5,132C 138.982,135.251 140.316,138.585 141.5,142C 141.836,143.03 142.503,143.53 143.5,143.5C 145.516,149.866 148.349,155.866 152,161.5C 163.882,155.959 175.549,149.959 187,143.5C 186.274,138.033 185.107,132.699 183.5,127.5C 183.58,124.219 182.913,121.219 181.5,118.5C 180.258,113.804 178.925,109.137 177.5,104.5C 176.05,88.7651 183.05,81.7651 198.5,83.5 Z"/></g>
<g><path style="opacity:1" fill="#d7a2c7" d="M 198.5,83.5 C 183.05,81.7651 176.05,88.7651 177.5,104.5C 176.521,101.375 176.187,98.0419 176.5,94.5C 176.389,93.8826 176.056,93.3826 175.5,93C 177.155,91.5557 177.822,89.7224 177.5,87.5C 180.735,85.2953 183.901,82.9619 187,80.5C 190.411,81.2931 193.911,81.7931 197.5,82C 198.056,82.3826 198.389,82.8826 198.5,83.5 Z"/></g>
<g><path style="opacity:1" fill="#0b0608" d="M 380.5,105.5 C 379.167,107.5 379.167,109.5 380.5,111.5C 375.784,121.142 368.117,124.309 357.5,121C 356.5,120 355.5,119 354.5,118C 353.668,117.312 353.002,117.479 352.5,118.5C 345.965,127.062 340.632,136.395 336.5,146.5C 338.491,148.164 340.491,149.831 342.5,151.5C 347.018,155.59 352.018,158.923 357.5,161.5C 358.911,163.539 360.911,164.539 363.5,164.5C 364.406,166.914 366.072,167.747 368.5,167C 374.425,160.584 380.425,154.417 386.5,148.5C 391.125,143.063 396.792,139.063 403.5,136.5C 404.298,136.043 404.631,135.376 404.5,134.5C 418.197,130.92 425.197,135.92 425.5,149.5C 424.611,152.279 423.444,154.945 422,157.5C 414.009,161.338 406.175,161.004 398.5,156.5C 397.833,155.5 397.167,154.5 396.5,153.5C 390.818,157.909 385.818,162.909 381.5,168.5C 376.274,173.04 372.274,178.373 369.5,184.5C 367.488,185.014 365.488,185.18 363.5,185C 356.126,178.951 348.793,172.951 341.5,167C 340.552,166.517 339.552,166.351 338.5,166.5C 335.215,162.724 331.215,159.89 326.5,158C 325.506,156.671 324.506,155.338 323.5,154C 326.823,144.864 330.823,136.031 335.5,127.5C 339.571,121.722 343.904,116.055 348.5,110.5C 349.456,108.925 350.123,107.258 350.5,105.5C 353.48,102.856 356.48,100.189 359.5,97.5C 365.261,94.8053 370.928,95.1386 376.5,98.5C 377.688,101.021 379.022,103.355 380.5,105.5 Z"/></g>
<g><path style="opacity:1" fill="#dfadce" d="M 149.5,105.5 C 150.911,112.519 150.744,119.519 149,126.5C 146.659,128.545 144.326,130.545 142,132.5C 141.833,133.5 141.667,134.5 141.5,135.5C 142.664,138.067 143.33,140.734 143.5,143.5C 142.503,143.53 141.836,143.03 141.5,142C 140.316,138.585 138.982,135.251 137.5,132C 144.257,129.064 148.257,123.897 149.5,116.5C 148.464,111.678 147.13,107.012 145.5,102.5C 143.116,102.557 140.782,102.223 138.5,101.5C 136.149,102.173 133.816,102.84 131.5,103.5C 131.414,102.504 131.748,101.671 132.5,101C 137.854,100.471 143.187,100.638 148.5,101.5C 148.433,102.959 148.766,104.292 149.5,105.5 Z"/></g>
<g><path style="opacity:1" fill="#815f78" d="M 380.5,105.5 C 381.833,107.5 381.833,109.5 380.5,111.5C 379.167,109.5 379.167,107.5 380.5,105.5 Z"/></g>
<g><path style="opacity:1" fill="#8e6b84" d="M 268.5,103.5 C 267.988,108.748 267.655,113.748 267.5,118.5C 266.274,113.335 266.607,108.335 268.5,103.5 Z"/></g>
<g><path style="opacity:1" fill="#febee4" d="M 73.5,71.5 C 72.9278,73.2554 72.0945,74.9221 71,76.5C 62.9603,82.522 57.2936,90.1887 54,99.5C 52.7432,101.746 50.9099,103.079 48.5,103.5C 47.3317,105.813 45.9983,108.146 44.5,110.5C 46.7427,111.474 49.076,111.808 51.5,111.5C 51.33,110.178 51.6634,109.011 52.5,108C 57.5831,104.007 60.5831,105.174 61.5,111.5C 78.1667,111.5 94.8333,111.5 111.5,111.5C 111.095,107.952 111.595,104.619 113,101.5C 114.264,104.79 115.43,108.124 116.5,111.5C 117.771,109.171 119.771,108.005 122.5,108C 121.167,107.333 121.167,106.667 122.5,106C 124.134,105.506 125.801,105.34 127.5,105.5C 124.736,109.09 123.403,113.257 123.5,118C 124.731,123.858 126.064,129.692 127.5,135.5C 127.892,138.146 127.892,140.646 127.5,143C 129.911,143.856 131.244,145.523 131.5,148C 129.848,150.327 128.515,152.827 127.5,155.5C 116.833,155.5 106.167,155.5 95.5,155.5C 94.8333,150.167 94.1667,150.167 93.5,155.5C 89.9866,156.124 87.1533,155.124 85,152.5C 84,152.833 83,153.167 82,153.5C 80.331,151.831 79.4977,149.831 79.5,147.5C 77.8008,147.34 76.1341,147.506 74.5,148C 73.1667,149.333 73.1667,150.667 74.5,152C 72.316,152.442 70.316,151.942 68.5,150.5C 64.8186,143.795 63.1519,144.461 63.5,152.5C 68.4906,152.747 68.6573,154.08 64,156.5C 53.2059,155.534 42.3726,155.2 31.5,155.5C 31.762,154.022 31.4287,152.689 30.5,151.5C 29.65,153.904 28.65,156.237 27.5,158.5C 26.4495,157.115 25.1161,156.115 23.5,155.5C 22.8589,156.993 21.8589,157.993 20.5,158.5C 22.4679,150.342 24.8012,142.342 27.5,134.5C 39.1688,110.831 54.5021,89.8312 73.5,71.5 Z"/></g>
<g><path style="opacity:1" fill="#fdbde4" d="M 258.5,90.5 C 257.569,107.049 257.902,124.049 259.5,141.5C 259.579,142.93 259.246,144.264 258.5,145.5C 259.601,147.394 260.934,148.061 262.5,147.5C 260.473,148.693 258.973,150.36 258,152.5C 257.316,151.216 257.483,150.049 258.5,149C 258,148.833 257.5,148.667 257,148.5C 255.338,150.573 253.671,151.906 252,152.5C 251.439,151.978 250.772,151.645 250,151.5C 246.451,153.456 242.951,155.123 239.5,156.5C 235.154,156.666 230.821,156.499 226.5,156C 226,155.5 225.5,155 225,154.5C 218.667,155.167 212.333,155.833 206,156.5C 205.5,156 205,155.5 204.5,155C 205.624,154.751 206.624,154.251 207.5,153.5C 206.471,153.704 205.471,153.204 204.5,152C 205.448,151.517 206.448,151.351 207.5,151.5C 206.969,148.221 204.969,146.887 201.5,147.5C 200.5,147.5 199.5,147.5 198.5,147.5C 195.122,136.158 192.122,124.658 189.5,113C 197.589,111.073 202.922,106.239 205.5,98.5C 205.613,102.892 206.613,107.059 208.5,111C 223.833,111.667 239.167,111.667 254.5,111C 255.767,109.204 255.767,107.371 254.5,105.5C 256.558,100.554 257.892,95.5545 258.5,90.5 Z"/></g>
<g><path style="opacity:1" fill="#fcbde3" d="M 444.5,93.5 C 458.857,110.193 470.191,128.86 478.5,149.5C 478.5,150.833 478.5,152.167 478.5,153.5C 476.721,155.344 474.388,156.01 471.5,155.5C 471.5,156.833 471.5,158.167 471.5,159.5C 469.833,159.5 468.167,159.5 466.5,159.5C 466.67,158.178 466.337,157.011 465.5,156C 467.336,154.581 469.336,153.414 471.5,152.5C 469.385,150.701 467.218,149.034 465,147.5C 462.341,149.8 461.841,152.466 463.5,155.5C 451.38,155.591 439.38,155.591 427.5,155.5C 427.142,150.89 427.142,146.39 427.5,142C 425.271,134.317 420.104,131.151 412,132.5C 409.134,132.3 406.634,132.967 404.5,134.5C 404.631,135.376 404.298,136.043 403.5,136.5C 396.792,139.063 391.125,143.063 386.5,148.5C 385.883,148.389 385.383,148.056 385,147.5C 381.946,149.422 379.28,151.755 377,154.5C 375.699,153.902 374.865,152.902 374.5,151.5C 373.311,150.571 371.978,150.238 370.5,150.5C 370.66,152.199 370.494,153.866 370,155.5C 369.692,154.692 369.192,154.025 368.5,153.5C 364.67,155.866 360.67,156.033 356.5,154C 359.941,153.164 360.108,152.331 357,151.5C 354.611,151.963 352.277,152.63 350,153.5C 347.744,151.915 345.244,151.248 342.5,151.5C 340.491,149.831 338.491,148.164 336.5,146.5C 340.632,136.395 345.965,127.062 352.5,118.5C 353.002,117.479 353.668,117.312 354.5,118C 355.5,119 356.5,120 357.5,121C 368.117,124.309 375.784,121.142 380.5,111.5C 381.833,109.5 381.833,107.5 380.5,105.5C 379.022,103.355 377.688,101.021 376.5,98.5C 370.928,95.1386 365.261,94.8053 359.5,97.5C 359.577,96.2502 360.244,95.4169 361.5,95C 366.995,94.0688 372.329,94.5688 377.5,96.5C 381.152,100.812 382.819,105.812 382.5,111.5C 398.833,111.5 415.167,111.5 431.5,111.5C 431.5,110.167 431.5,108.833 431.5,107.5C 437.206,107.171 442.872,107.505 448.5,108.5C 450.505,111.019 451.838,113.853 452.5,117C 451.217,119.795 451.217,122.628 452.5,125.5C 454.59,123.557 456.757,122.557 459,122.5C 458.948,118.973 457.948,115.64 456,112.5C 454.308,112.324 452.808,111.824 451.5,111C 452.167,110.333 452.833,109.667 453.5,109C 448.759,104.017 445.759,98.85 444.5,93.5 Z"/></g>
<g><path style="opacity:1" fill="#fcbde2" d="M 176.5,94.5 C 176.187,98.0419 176.521,101.375 177.5,104.5C 178.925,109.137 180.258,113.804 181.5,118.5C 181.42,121.781 182.087,124.781 183.5,127.5C 185.107,132.699 186.274,138.033 187,143.5C 175.549,149.959 163.882,155.959 152,161.5C 148.349,155.866 145.516,149.866 143.5,143.5C 143.33,140.734 142.664,138.067 141.5,135.5C 141.667,134.5 141.833,133.5 142,132.5C 144.326,130.545 146.659,128.545 149,126.5C 150.744,119.519 150.911,112.519 149.5,105.5C 150.989,107.116 151.989,109.116 152.5,111.5C 153.167,109.5 153.833,107.5 154.5,105.5C 156.167,107.167 157.833,108.833 159.5,110.5C 164.467,111.662 169.467,111.829 174.5,111C 174.617,105.449 175.284,99.9491 176.5,94.5 Z"/></g>
<g><path style="opacity:1" fill="#fdbce4" d="M 288.5,92.5 C 288.108,94.1789 287.608,95.8455 287,97.5C 284.162,98.3435 282.329,100.177 281.5,103C 278.23,103.995 274.897,104.828 271.5,105.5C 270.96,106.748 270.293,107.915 269.5,109C 272.311,108.256 275.144,108.423 278,109.5C 279.622,109.046 280.788,108.046 281.5,106.5C 283.396,105.534 285.396,105.201 287.5,105.5C 287.762,106.978 287.429,108.311 286.5,109.5C 284.883,109.669 283.216,110.003 281.5,110.5C 299.868,111.82 318.201,111.82 336.5,110.5C 340.974,116.502 343.807,115.835 345,108.5C 346.488,106.84 348.321,105.84 350.5,105.5C 350.123,107.258 349.456,108.925 348.5,110.5C 343.904,116.055 339.571,121.722 335.5,127.5C 334.167,127.5 332.833,127.5 331.5,127.5C 332.028,130.571 331.361,133.571 329.5,136.5C 323.117,141.61 319.784,147.944 319.5,155.5C 311.5,155.5 303.5,155.5 295.5,155.5C 295.657,154.127 295.49,152.793 295,151.5C 294.692,152.308 294.192,152.975 293.5,153.5C 291.807,151.721 289.807,151.221 287.5,152C 287.943,153.518 287.276,154.685 285.5,155.5C 283.833,154.167 282.167,154.167 280.5,155.5C 279.571,154.311 279.238,152.978 279.5,151.5C 277.193,151.986 275.027,151.986 273,151.5C 268.687,153.953 267.521,152.619 269.5,147.5C 269.919,146.328 270.585,145.328 271.5,144.5C 270.933,142.018 270.266,139.684 269.5,137.5C 268.974,133.688 268.307,130.021 267.5,126.5C 267.316,124.144 267.316,121.477 267.5,118.5C 267.655,113.748 267.988,108.748 268.5,103.5C 268.611,102.883 268.944,102.383 269.5,102C 277.341,101.617 283.675,98.4499 288.5,92.5 Z"/></g>
<g><path style="opacity:1" fill="#956c84" d="M 181.5,118.5 C 182.913,121.219 183.58,124.219 183.5,127.5C 182.087,124.781 181.42,121.781 181.5,118.5 Z"/></g>
<g><path style="opacity:1" fill="#77586b" d="M 267.5,126.5 C 268.307,130.021 268.974,133.688 269.5,137.5C 268.833,137.5 268.5,137.833 268.5,138.5C 267.517,134.702 267.183,130.702 267.5,126.5 Z"/></g>
<g><path style="opacity:1" fill="#f5beda" d="M 386.5,148.5 C 380.425,154.417 374.425,160.584 368.5,167C 366.072,167.747 364.406,166.914 363.5,164.5C 361.819,162.992 359.819,161.992 357.5,161.5C 352.018,158.923 347.018,155.59 342.5,151.5C 345.244,151.248 347.744,151.915 350,153.5C 352.277,152.63 354.611,151.963 357,151.5C 360.108,152.331 359.941,153.164 356.5,154C 360.67,156.033 364.67,155.866 368.5,153.5C 369.192,154.025 369.692,154.692 370,155.5C 370.494,153.866 370.66,152.199 370.5,150.5C 371.978,150.238 373.311,150.571 374.5,151.5C 374.865,152.902 375.699,153.902 377,154.5C 379.28,151.755 381.946,149.422 385,147.5C 385.383,148.056 385.883,148.389 386.5,148.5 Z"/></g>
<g><path style="opacity:1" fill="#fec1e0" d="M 478.5,153.5 C 481.415,157.69 482.081,162.357 480.5,167.5C 469.825,166.189 458.991,165.523 448,165.5C 437.5,165.667 427,165.833 416.5,166C 415.892,166.87 415.059,167.37 414,167.5C 412.467,166.305 410.967,166.305 409.5,167.5C 408.522,167.023 407.689,166.357 407,165.5C 406.167,168 405,168.167 403.5,166C 406.028,164.983 406.028,163.816 403.5,162.5C 403.709,161.914 404.043,161.414 404.5,161C 406.894,161.127 409.228,161.627 411.5,162.5C 417.46,161.302 422.793,158.969 427.5,155.5C 439.38,155.591 451.38,155.591 463.5,155.5C 461.841,152.466 462.341,149.8 465,147.5C 467.218,149.034 469.385,150.701 471.5,152.5C 469.336,153.414 467.336,154.581 465.5,156C 466.337,157.011 466.67,158.178 466.5,159.5C 468.167,159.5 469.833,159.5 471.5,159.5C 471.5,158.167 471.5,156.833 471.5,155.5C 474.388,156.01 476.721,155.344 478.5,153.5 Z"/></g>
<g><path style="opacity:1" fill="#020101" d="M 331.5,175.5 C 337.946,179.779 343.946,184.612 349.5,190C 351.607,191.264 352.607,193.097 352.5,195.5C 353.552,195.351 354.552,195.517 355.5,196C 358.365,199.692 361.365,203.192 364.5,206.5C 370.182,215.209 375.849,223.875 381.5,232.5C 386.491,241.283 390.825,250.45 394.5,260C 397.061,267.491 399.061,274.991 400.5,282.5C 401.288,288.672 401.955,295.005 402.5,301.5C 402.48,302.726 402.147,303.726 401.5,304.5C 400.167,306.5 400.167,308.5 401.5,310.5C 402.167,310.5 402.5,310.833 402.5,311.5C 401.833,311.5 401.5,311.833 401.5,312.5C 400.596,313.209 400.263,314.209 400.5,315.5C 357.833,315.5 315.167,315.5 272.5,315.5C 272.5,315.167 272.5,314.833 272.5,314.5C 273.328,310.036 273.661,305.37 273.5,300.5C 274.724,284.678 274.724,269.011 273.5,253.5C 273.369,252.624 273.702,251.957 274.5,251.5C 275.386,252.325 275.719,253.325 275.5,254.5C 277.678,253.796 279.678,253.463 281.5,253.5C 281.977,252.522 282.643,251.689 283.5,251C 281.942,250.79 280.609,250.29 279.5,249.5C 281.415,249.784 283.081,249.451 284.5,248.5C 285.72,246.95 285.72,245.284 284.5,243.5C 282.769,242.793 281.103,241.793 279.5,240.5C 275.221,243.75 272.721,242.75 272,237.5C 271.329,236.748 270.496,236.414 269.5,236.5C 265.214,230.241 261.214,223.908 257.5,217.5C 255.8,210.017 255.133,202.684 255.5,195.5C 255.5,194.833 255.5,194.167 255.5,193.5C 256.157,189.744 257.157,185.91 258.5,182C 257.909,179.761 257.242,177.594 256.5,175.5C 247.97,174.394 239.803,175.727 232,179.5C 230.919,182.968 231.585,185.968 234,188.5C 234.189,198.36 234.022,208.026 233.5,217.5C 231.121,225.047 227.788,232.047 223.5,238.5C 221.405,239.412 219.405,240.579 217.5,242C 213.644,242.177 209.977,242.677 206.5,243.5C 204.052,243.085 202.719,244.085 202.5,246.5C 203.472,248.305 204.639,249.972 206,251.5C 210.401,250.533 214.901,250.2 219.5,250.5C 219.5,258.167 219.5,265.833 219.5,273.5C 219.339,281.206 219.672,288.54 220.5,295.5C 220.365,302.317 220.365,308.984 220.5,315.5C 180.833,315.5 141.167,315.5 101.5,315.5C 101.5,311.5 101.5,307.5 101.5,303.5C 103.015,292.433 105.015,281.433 107.5,270.5C 111.861,258.768 116.528,247.102 121.5,235.5C 125.35,229.113 129.516,222.78 134,216.5C 138.031,211.304 142.531,206.637 147.5,202.5C 147.351,201.448 147.517,200.448 148,199.5C 150.69,197.973 152.857,195.973 154.5,193.5C 157.971,192.367 159.971,190.033 160.5,186.5C 163.063,185.8 165.563,184.8 168,183.5C 171.525,179.984 175.358,176.817 179.5,174C 187.618,169.854 195.951,166.354 204.5,163.5C 207.428,163.435 210.095,162.768 212.5,161.5C 221.454,159.554 230.454,157.888 239.5,156.5C 243.287,156.22 246.953,156.22 250.5,156.5C 254.289,153.889 258.122,153.889 262,156.5C 262.772,156.355 263.439,156.022 264,155.5C 272.145,156.79 280.311,158.123 288.5,159.5C 289.086,159.291 289.586,158.957 290,158.5C 304.997,161.549 318.831,167.215 331.5,175.5 Z"/></g>
<g><path style="opacity:1" fill="#f7bfdc" d="M 335.5,127.5 C 330.823,136.031 326.823,144.864 323.5,154C 324.506,155.338 325.506,156.671 326.5,158C 331.215,159.89 335.215,162.724 338.5,166.5C 339.67,168.279 341.336,169.279 343.5,169.5C 342.923,172.645 340.923,174.145 337.5,174C 338.336,175.243 338.003,176.41 336.5,177.5C 334.925,176.544 333.258,175.877 331.5,175.5C 318.831,167.215 304.997,161.549 290,158.5C 289.586,158.957 289.086,159.291 288.5,159.5C 280.311,158.123 272.145,156.79 264,155.5C 263.439,156.022 262.772,156.355 262,156.5C 258.122,153.889 254.289,153.889 250.5,156.5C 246.953,156.22 243.287,156.22 239.5,156.5C 242.951,155.123 246.451,153.456 250,151.5C 250.772,151.645 251.439,151.978 252,152.5C 253.671,151.906 255.338,150.573 257,148.5C 257.5,148.667 258,148.833 258.5,149C 257.483,150.049 257.316,151.216 258,152.5C 258.973,150.36 260.473,148.693 262.5,147.5C 260.934,148.061 259.601,147.394 258.5,145.5C 259.246,144.264 259.579,142.93 259.5,141.5C 260.31,144.089 262.144,145.422 265,145.5C 268.848,144.272 270.015,141.938 268.5,138.5C 268.5,137.833 268.833,137.5 269.5,137.5C 270.266,139.684 270.933,142.018 271.5,144.5C 270.585,145.328 269.919,146.328 269.5,147.5C 267.521,152.619 268.687,153.953 273,151.5C 275.027,151.986 277.193,151.986 279.5,151.5C 279.238,152.978 279.571,154.311 280.5,155.5C 282.167,154.167 283.833,154.167 285.5,155.5C 287.276,154.685 287.943,153.518 287.5,152C 289.807,151.221 291.807,151.721 293.5,153.5C 294.192,152.975 294.692,152.308 295,151.5C 295.49,152.793 295.657,154.127 295.5,155.5C 303.5,155.5 311.5,155.5 319.5,155.5C 319.784,147.944 323.117,141.61 329.5,136.5C 331.361,133.571 332.028,130.571 331.5,127.5C 332.833,127.5 334.167,127.5 335.5,127.5 Z"/></g>
<g><path style="opacity:1" fill="#fdc5dc" d="M 27.5,134.5 C 24.8012,142.342 22.4679,150.342 20.5,158.5C 19.4324,159.434 18.099,159.768 16.5,159.5C 16.1485,162.073 16.6485,164.406 18,166.5C 27.7504,165.514 37.5837,165.181 47.5,165.5C 47.2011,163.396 47.5344,161.396 48.5,159.5C 49.9445,162.055 51.1112,164.721 52,167.5C 54.2838,169.984 56.7838,170.151 59.5,168C 57.2464,166.946 56.913,165.446 58.5,163.5C 57.5,162.833 56.5,162.167 55.5,161.5C 57.9903,160.368 60.3237,160.701 62.5,162.5C 60.9294,166.905 60.7627,171.238 62,175.5C 63.5196,178.382 64.8529,181.382 66,184.5C 69.9865,185.988 72.8199,188.654 74.5,192.5C 74.838,194.854 75.338,197.187 76,199.5C 77.3333,196.833 78.6667,196.833 80,199.5C 80.3333,199.167 80.6667,198.833 81,198.5C 82,200.167 83,201.833 84,203.5C 84.3333,202.833 84.6667,202.167 85,201.5C 91.0303,205.072 90.1969,206.406 82.5,205.5C 82.7778,203.654 82.1112,202.32 80.5,201.5C 69.6577,202.811 58.6577,203.478 47.5,203.5C 36.8333,203.167 26.1667,202.833 15.5,202.5C 9.88203,198.387 7.21536,200.054 7.5,207.5C 6.5,207.5 5.5,207.5 4.5,207.5C 7.40965,191.944 11.0763,176.611 15.5,161.5C 18.3501,151.935 22.3501,142.935 27.5,134.5 Z"/></g>
<g><path style="opacity:1" fill="#fbc2dc" d="M 127.5,135.5 C 131.989,144.647 136.489,153.98 141,163.5C 144.253,166.883 146.587,170.883 148,175.5C 149.062,176.899 150.395,177.899 152,178.5C 163.65,171.264 175.816,164.764 188.5,159C 192.366,158.287 196.033,157.12 199.5,155.5C 199.263,154.209 199.596,153.209 200.5,152.5C 201.451,151.081 201.784,149.415 201.5,147.5C 204.969,146.887 206.969,148.221 207.5,151.5C 206.448,151.351 205.448,151.517 204.5,152C 205.471,153.204 206.471,153.704 207.5,153.5C 206.624,154.251 205.624,154.751 204.5,155C 205,155.5 205.5,156 206,156.5C 212.333,155.833 218.667,155.167 225,154.5C 225.5,155 226,155.5 226.5,156C 230.821,156.499 235.154,156.666 239.5,156.5C 230.454,157.888 221.454,159.554 212.5,161.5C 209.505,161.294 206.838,161.96 204.5,163.5C 195.951,166.354 187.618,169.854 179.5,174C 175.358,176.817 171.525,179.984 168,183.5C 165.563,184.8 163.063,185.8 160.5,186.5C 159.971,190.033 157.971,192.367 154.5,193.5C 154.349,190.282 153.516,189.949 152,192.5C 151,191.167 150,191.167 149,192.5C 148.517,191.552 148.351,190.552 148.5,189.5C 146.396,189.201 144.396,189.534 142.5,190.5C 142.977,191.478 143.643,192.311 144.5,193C 143.366,194.016 143.699,194.683 145.5,195C 136.5,195.667 127.5,195.667 118.5,195C 113.373,194.059 108.206,192.559 103,190.5C 100.739,190.439 98.7395,191.106 97,192.5C 95.6338,190.63 94.4672,188.63 93.5,186.5C 90.8737,185.707 89.0404,184.04 88,181.5C 88.9727,176.246 89.3061,170.913 89,165.5C 88.2904,164.027 87.1238,163.36 85.5,163.5C 80.3544,156.157 73.6877,154.657 65.5,159C 63.9371,159.759 62.9371,160.926 62.5,162.5C 60.3237,160.701 57.9903,160.368 55.5,161.5C 56.5,162.167 57.5,162.833 58.5,163.5C 56.913,165.446 57.2464,166.946 59.5,168C 56.7838,170.151 54.2838,169.984 52,167.5C 51.1112,164.721 49.9445,162.055 48.5,159.5C 47.5344,161.396 47.2011,163.396 47.5,165.5C 37.5837,165.181 27.7504,165.514 18,166.5C 16.6485,164.406 16.1485,162.073 16.5,159.5C 18.099,159.768 19.4324,159.434 20.5,158.5C 21.8589,157.993 22.8589,156.993 23.5,155.5C 25.1161,156.115 26.4495,157.115 27.5,158.5C 28.65,156.237 29.65,153.904 30.5,151.5C 31.4287,152.689 31.762,154.022 31.5,155.5C 42.3726,155.2 53.2059,155.534 64,156.5C 68.6573,154.08 68.4906,152.747 63.5,152.5C 63.1519,144.461 64.8186,143.795 68.5,150.5C 70.316,151.942 72.316,152.442 74.5,152C 73.1667,150.667 73.1667,149.333 74.5,148C 76.1341,147.506 77.8008,147.34 79.5,147.5C 79.4977,149.831 80.331,151.831 82,153.5C 83,153.167 84,152.833 85,152.5C 87.1533,155.124 89.9866,156.124 93.5,155.5C 94.1667,150.167 94.8333,150.167 95.5,155.5C 106.167,155.5 116.833,155.5 127.5,155.5C 128.515,152.827 129.848,150.327 131.5,148C 131.244,145.523 129.911,143.856 127.5,143C 127.892,140.646 127.892,138.146 127.5,135.5 Z"/></g>
<g><path style="opacity:1" fill="#9b7489" d="M 198.5,147.5 C 199.5,147.5 200.5,147.5 201.5,147.5C 201.784,149.415 201.451,151.081 200.5,152.5C 200.107,150.716 199.441,149.05 198.5,147.5 Z"/></g>
<g><path style="opacity:1" fill="#fdc4dd" d="M 427.5,155.5 C 422.793,158.969 417.46,161.302 411.5,162.5C 409.228,161.627 406.894,161.127 404.5,161C 404.043,161.414 403.709,161.914 403.5,162.5C 406.028,163.816 406.028,164.983 403.5,166C 405,168.167 406.167,168 407,165.5C 407.689,166.357 408.522,167.023 409.5,167.5C 410.967,166.305 412.467,166.305 414,167.5C 415.059,167.37 415.892,166.87 416.5,166C 427,165.833 437.5,165.667 448,165.5C 458.991,165.523 469.825,166.189 480.5,167.5C 482.081,162.357 481.415,157.69 478.5,153.5C 478.5,152.167 478.5,150.833 478.5,149.5C 481.964,156.112 484.631,163.112 486.5,170.5C 486.962,175.028 487.629,179.528 488.5,184C 487.079,187.875 485.746,191.708 484.5,195.5C 483.5,195.5 482.5,195.5 481.5,195.5C 481.328,193.508 481.995,191.842 483.5,190.5C 482.147,189.315 480.98,187.981 480,186.5C 479.995,189.229 478.829,191.229 476.5,192.5C 477.5,193.333 478.5,194.167 479.5,195C 473.845,195.819 468.345,195.319 463,193.5C 442.951,194.345 422.785,195.011 402.5,195.5C 390.833,195.333 379.167,195.167 367.5,195C 365.972,192.76 363.972,191.093 361.5,190C 362.549,189.508 363.549,189.674 364.5,190.5C 367.028,189.502 367.028,188.669 364.5,188C 368.115,187.048 370.448,188.381 371.5,192C 373.074,192.699 374.407,192.365 375.5,191C 374.167,190.333 374.167,189.667 375.5,189C 373.925,189.379 372.425,189.212 371,188.5C 369.461,184.237 370.794,181.57 375,180.5C 375.786,176.71 377.786,173.71 381,171.5C 381.483,170.552 381.649,169.552 381.5,168.5C 385.818,162.909 390.818,157.909 396.5,153.5C 397.167,154.5 397.833,155.5 398.5,156.5C 406.175,161.004 414.009,161.338 422,157.5C 423.444,154.945 424.611,152.279 425.5,149.5C 425.197,135.92 418.197,130.92 404.5,134.5C 406.634,132.967 409.134,132.3 412,132.5C 420.104,131.151 425.271,134.317 427.5,142C 427.142,146.39 427.142,150.89 427.5,155.5 Z"/></g>
<g><path style="opacity:1" fill="#7f5f70" d="M 212.5,161.5 C 210.095,162.768 207.428,163.435 204.5,163.5C 206.838,161.96 209.505,161.294 212.5,161.5 Z"/></g>
<g><path style="opacity:1" fill="#997989" d="M 357.5,161.5 C 359.819,161.992 361.819,162.992 363.5,164.5C 360.911,164.539 358.911,163.539 357.5,161.5 Z"/></g>
<g><path style="opacity:1" fill="#fbc6d9" d="M 338.5,166.5 C 339.552,166.351 340.552,166.517 341.5,167C 348.793,172.951 356.126,178.951 363.5,185C 365.488,185.18 367.488,185.014 369.5,184.5C 372.274,178.373 376.274,173.04 381.5,168.5C 381.649,169.552 381.483,170.552 381,171.5C 377.786,173.71 375.786,176.71 375,180.5C 370.794,181.57 369.461,184.237 371,188.5C 372.425,189.212 373.925,189.379 375.5,189C 374.167,189.667 374.167,190.333 375.5,191C 374.407,192.365 373.074,192.699 371.5,192C 370.448,188.381 368.115,187.048 364.5,188C 367.028,188.669 367.028,189.502 364.5,190.5C 363.549,189.674 362.549,189.508 361.5,190C 363.972,191.093 365.972,192.76 367.5,195C 379.167,195.167 390.833,195.333 402.5,195.5C 422.785,195.011 442.951,194.345 463,193.5C 468.345,195.319 473.845,195.819 479.5,195C 478.5,194.167 477.5,193.333 476.5,192.5C 478.829,191.229 479.995,189.229 480,186.5C 480.98,187.981 482.147,189.315 483.5,190.5C 481.995,191.842 481.328,193.508 481.5,195.5C 482.5,195.5 483.5,195.5 484.5,195.5C 485.746,191.708 487.079,187.875 488.5,184C 487.629,179.528 486.962,175.028 486.5,170.5C 488.924,175.847 490.591,181.513 491.5,187.5C 491.255,192.462 491.922,197.295 493.5,202C 493.062,203.92 492.395,205.754 491.5,207.5C 489.889,206.68 489.222,205.346 489.5,203.5C 487.833,203.5 486.167,203.5 484.5,203.5C 483.833,207.5 483.167,207.5 482.5,203.5C 478.327,202.956 474.494,203.623 471,205.5C 469.934,203.901 468.434,202.901 466.5,202.5C 464.591,203.348 462.591,203.682 460.5,203.5C 457.693,203.888 455.026,203.888 452.5,203.5C 424.554,203.599 396.221,203.599 367.5,203.5C 367.657,204.873 367.49,206.207 367,207.5C 366.329,206.748 365.496,206.414 364.5,206.5C 361.365,203.192 358.365,199.692 355.5,196C 354.552,195.517 353.552,195.351 352.5,195.5C 352.607,193.097 351.607,191.264 349.5,190C 343.946,184.612 337.946,179.779 331.5,175.5C 333.258,175.877 334.925,176.544 336.5,177.5C 338.003,176.41 338.336,175.243 337.5,174C 340.923,174.145 342.923,172.645 343.5,169.5C 341.336,169.279 339.67,168.279 338.5,166.5 Z"/></g>
<g><path style="opacity:1" fill="#fbc6d9" d="M 85.5,163.5 C 87.1238,163.36 88.2904,164.027 89,165.5C 89.3061,170.913 88.9727,176.246 88,181.5C 89.0404,184.04 90.8737,185.707 93.5,186.5C 94.4672,188.63 95.6338,190.63 97,192.5C 98.7395,191.106 100.739,190.439 103,190.5C 108.206,192.559 113.373,194.059 118.5,195C 127.5,195.667 136.5,195.667 145.5,195C 143.699,194.683 143.366,194.016 144.5,193C 143.643,192.311 142.977,191.478 142.5,190.5C 144.396,189.534 146.396,189.201 148.5,189.5C 148.351,190.552 148.517,191.552 149,192.5C 150,191.167 151,191.167 152,192.5C 153.516,189.949 154.349,190.282 154.5,193.5C 152.857,195.973 150.69,197.973 148,199.5C 147.517,200.448 147.351,201.448 147.5,202.5C 144.15,202.335 140.817,202.502 137.5,203C 137,203.5 136.5,204 136,204.5C 131.587,203.368 127.087,203.201 122.5,204C 123.821,205.545 123.488,206.711 121.5,207.5C 121.446,206.313 121.113,204.98 120.5,203.5C 119.833,203.833 119.167,204.167 118.5,204.5C 115.567,203.195 112.567,202.195 109.5,201.5C 100.078,196.219 90.7445,190.552 81.5,184.5C 87.7656,178.447 89.0989,171.447 85.5,163.5 Z"/></g>
<g><path style="opacity:1" fill="#fbcad6" d="M 15.5,161.5 C 11.0763,176.611 7.40965,191.944 4.5,207.5C 5.5,207.5 6.5,207.5 7.5,207.5C 7.21536,200.054 9.88203,198.387 15.5,202.5C 26.1667,202.833 36.8333,203.167 47.5,203.5C 58.6577,203.478 69.6577,202.811 80.5,201.5C 82.1112,202.32 82.7778,203.654 82.5,205.5C 90.1969,206.406 91.0303,205.072 85,201.5C 84.6667,202.167 84.3333,202.833 84,203.5C 83,201.833 82,200.167 81,198.5C 80.6667,198.833 80.3333,199.167 80,199.5C 78.6667,196.833 77.3333,196.833 76,199.5C 75.338,197.187 74.838,194.854 74.5,192.5C 80.1466,195.274 85.4799,198.774 90.5,203C 92.7173,204.275 95.0506,205.275 97.5,206C 99.2148,206.777 100.215,208.11 100.5,210C 96.0983,221.966 91.0983,233.633 85.5,245C 81.6244,244.332 77.7911,243.165 74,241.5C 67.3592,238.515 60.8592,235.348 54.5,232C 55.624,231.751 56.624,231.251 57.5,230.5C 61.2345,218.64 57.0678,210.973 45,207.5C 41.3983,208.81 37.8983,210.31 34.5,212C 33.7709,214.058 32.7709,215.891 31.5,217.5C 30.5041,217.414 29.6708,217.748 29,218.5C 29.6896,222.144 28.3563,225.144 25,227.5C 24.237,224.937 23.737,224.937 23.5,227.5C 24.2848,232.018 25.6182,232.351 27.5,228.5C 27.9106,229.262 28.0773,230.262 28,231.5C 29.373,231.596 30.873,231.43 32.5,231C 31.1667,232 31.1667,233 32.5,234C 23.8098,234.207 15.3098,233.373 7,231.5C 4.76538,236.417 3.93205,236.083 4.5,230.5C 2.81634,224.282 2.14968,217.949 2.5,211.5C 4.66404,194.174 8.99737,177.507 15.5,161.5 Z"/></g>
<g><path style="opacity:1" fill="#fdc6db" d="M 255.5,193.5 C 255.5,194.167 255.5,194.833 255.5,195.5C 254.612,198.054 254.279,200.721 254.5,203.5C 249.587,204.105 244.587,204.105 239.5,203.5C 239.813,206.247 239.48,208.914 238.5,211.5C 237.808,210.975 237.308,210.308 237,209.5C 236.5,201.841 236.334,194.174 236.5,186.5C 233.056,185.955 231.889,183.955 233,180.5C 235.719,179.556 238.552,179.223 241.5,179.5C 241.281,180.675 241.614,181.675 242.5,182.5C 243.642,180.622 244.642,178.788 245.5,177C 248.882,176.176 252.216,176.343 255.5,177.5C 254.624,178.251 253.624,178.751 252.5,179C 254.134,179.494 255.801,179.66 257.5,179.5C 256.264,184.067 255.598,188.734 255.5,193.5 Z"/></g>
<g><path style="opacity:1" fill="#0c0708" d="M 85.5,163.5 C 89.0989,171.447 87.7656,178.447 81.5,184.5C 90.7445,190.552 100.078,196.219 109.5,201.5C 112.55,203.364 115.217,205.697 117.5,208.5C 114.49,213.856 111.49,219.189 108.5,224.5C 105.561,229.652 102.727,234.985 100,240.5C 98.3936,245.807 96.8936,251.141 95.5,256.5C 94.3122,257.84 92.8122,258.507 91,258.5C 82.6839,255.266 74.1839,252.433 65.5,250C 57.6811,246.258 50.0144,242.258 42.5,238C 34.787,233.411 31.1203,226.578 31.5,217.5C 32.7709,215.891 33.7709,214.058 34.5,212C 37.8983,210.31 41.3983,208.81 45,207.5C 57.0678,210.973 61.2345,218.64 57.5,230.5C 56.624,231.251 55.624,231.751 54.5,232C 60.8592,235.348 67.3592,238.515 74,241.5C 77.7911,243.165 81.6244,244.332 85.5,245C 91.0983,233.633 96.0983,221.966 100.5,210C 100.215,208.11 99.2148,206.777 97.5,206C 95.0506,205.275 92.7173,204.275 90.5,203C 85.4799,198.774 80.1466,195.274 74.5,192.5C 72.8199,188.654 69.9865,185.988 66,184.5C 64.8529,181.382 63.5196,178.382 62,175.5C 60.7627,171.238 60.9294,166.905 62.5,162.5C 62.9371,160.926 63.9371,159.759 65.5,159C 73.6877,154.657 80.3544,156.157 85.5,163.5 Z"/></g>
<g><path style="opacity:1" fill="#f8c7d4" d="M 109.5,201.5 C 112.567,202.195 115.567,203.195 118.5,204.5C 119.167,204.167 119.833,203.833 120.5,203.5C 121.113,204.98 121.446,206.313 121.5,207.5C 123.488,206.711 123.821,205.545 122.5,204C 127.087,203.201 131.587,203.368 136,204.5C 136.5,204 137,203.5 137.5,203C 140.817,202.502 144.15,202.335 147.5,202.5C 142.531,206.637 138.031,211.304 134,216.5C 129.516,222.78 125.35,229.113 121.5,235.5C 119.186,233.356 117.853,230.69 117.5,227.5C 116.5,227.5 115.5,227.5 114.5,227.5C 114.357,229.262 114.691,230.929 115.5,232.5C 113.926,233.631 112.259,233.798 110.5,233C 111.5,230.909 110.833,229.243 108.5,228C 111.07,226.651 111.07,225.484 108.5,224.5C 111.49,219.189 114.49,213.856 117.5,208.5C 115.217,205.697 112.55,203.364 109.5,201.5 Z"/></g>
<g><path style="opacity:1" fill="#f1c2d0" d="M 255.5,193.5 C 255.598,188.734 256.264,184.067 257.5,179.5C 255.801,179.66 254.134,179.494 252.5,179C 253.624,178.751 254.624,178.251 255.5,177.5C 252.216,176.343 248.882,176.176 245.5,177C 244.642,178.788 243.642,180.622 242.5,182.5C 241.614,181.675 241.281,180.675 241.5,179.5C 238.552,179.223 235.719,179.556 233,180.5C 231.889,183.955 233.056,185.955 236.5,186.5C 236.334,194.174 236.5,201.841 237,209.5C 237.308,210.308 237.808,210.975 238.5,211.5C 239.48,208.914 239.813,206.247 239.5,203.5C 244.587,204.105 249.587,204.105 254.5,203.5C 254.279,200.721 254.612,198.054 255.5,195.5C 255.133,202.684 255.8,210.017 257.5,217.5C 257.719,218.675 257.386,219.675 256.5,220.5C 256.167,219.833 255.833,219.167 255.5,218.5C 253.202,221.545 250.368,221.878 247,219.5C 244.53,219.34 242.364,220.007 240.5,221.5C 239.914,221.291 239.414,220.957 239,220.5C 238.51,221.793 238.343,223.127 238.5,224.5C 236.833,224.5 235.167,224.5 233.5,224.5C 233.5,222.167 233.5,219.833 233.5,217.5C 234.022,208.026 234.189,198.36 234,188.5C 231.585,185.968 230.919,182.968 232,179.5C 239.803,175.727 247.97,174.394 256.5,175.5C 257.242,177.594 257.909,179.761 258.5,182C 257.157,185.91 256.157,189.744 255.5,193.5 Z"/></g>
<g><path style="opacity:1" fill="#fbc9d6" d="M 452.5,203.5 C 448.476,204.889 444.309,206.222 440,207.5C 429.437,211.947 419.27,216.947 409.5,222.5C 406.262,223.395 403.095,223.395 400,222.5C 399.529,224.246 398.862,225.913 398,227.5C 397.333,226.167 396.667,226.167 396,227.5C 394.014,222.601 392.514,222.601 391.5,227.5C 392.817,227.313 394.15,227.98 395.5,229.5C 394.754,230.736 394.421,232.07 394.5,233.5C 391.728,233.405 389.728,232.071 388.5,229.5C 387.066,232.987 384.733,233.987 381.5,232.5C 375.849,223.875 370.182,215.209 364.5,206.5C 365.496,206.414 366.329,206.748 367,207.5C 367.49,206.207 367.657,204.873 367.5,203.5C 396.221,203.599 424.554,203.599 452.5,203.5 Z"/></g>
<g><path style="opacity:1" fill="#0b0707" d="M 452.5,203.5 C 455.026,203.888 457.693,203.888 460.5,203.5C 469.655,207.152 473.655,213.818 472.5,223.5C 471.167,225.5 469.833,227.5 468.5,229.5C 463.113,231.787 457.78,231.787 452.5,229.5C 451.025,227.929 449.358,226.595 447.5,225.5C 447.346,223.03 446.346,221.03 444.5,219.5C 443.883,219.389 443.383,219.056 443,218.5C 432.985,223.006 423.318,228.006 414,233.5C 416.672,241.847 420.172,249.847 424.5,257.5C 425.785,261.476 427.118,265.476 428.5,269.5C 429.833,269.5 431.167,269.5 432.5,269.5C 432.5,268.5 432.5,267.5 432.5,266.5C 443.213,264.992 453.546,262.159 463.5,258C 469.833,257.333 476.167,257.333 482.5,258C 489.237,260.969 492.903,266.136 493.5,273.5C 492.725,276.8 491.225,279.8 489,282.5C 476.451,287.205 467.617,282.872 462.5,269.5C 451.542,273.489 440.542,277.156 429.5,280.5C 426.813,280.664 424.146,280.497 421.5,280C 420.269,277.834 419.269,275.667 418.5,273.5C 417.833,273.5 417.5,273.167 417.5,272.5C 415.954,269.051 414.121,265.717 412,262.5C 409.474,254.643 406.474,246.976 403,239.5C 400.463,237.14 398.63,234.307 397.5,231C 400.315,226.431 404.315,223.598 409.5,222.5C 419.27,216.947 429.437,211.947 440,207.5C 444.309,206.222 448.476,204.889 452.5,203.5 Z"/></g>
<g><path style="opacity:1" fill="#fccdd5" d="M 491.5,187.5 C 495.325,201.293 497.992,215.293 499.5,229.5C 499.5,235.5 499.5,241.5 499.5,247.5C 498.167,247.5 496.833,247.5 495.5,247.5C 495.5,246.167 495.5,244.833 495.5,243.5C 474.167,243.5 452.833,243.5 431.5,243.5C 431.762,244.978 431.429,246.311 430.5,247.5C 428.731,245.537 426.898,245.87 425,248.5C 426.082,245.707 426.415,242.707 426,239.5C 424.506,238.253 423.006,238.253 421.5,239.5C 421.745,241.745 421.745,244.078 421.5,246.5C 423.132,249.991 424.132,253.658 424.5,257.5C 420.172,249.847 416.672,241.847 414,233.5C 423.318,228.006 432.985,223.006 443,218.5C 443.383,219.056 443.883,219.389 444.5,219.5C 444.654,221.97 445.654,223.97 447.5,225.5C 449.358,226.595 451.025,227.929 452.5,229.5C 457.78,231.787 463.113,231.787 468.5,229.5C 469.833,227.5 471.167,225.5 472.5,223.5C 473.655,213.818 469.655,207.152 460.5,203.5C 462.591,203.682 464.591,203.348 466.5,202.5C 468.434,202.901 469.934,203.901 471,205.5C 474.494,203.623 478.327,202.956 482.5,203.5C 483.167,207.5 483.833,207.5 484.5,203.5C 486.167,203.5 487.833,203.5 489.5,203.5C 489.222,205.346 489.889,206.68 491.5,207.5C 492.395,205.754 493.062,203.92 493.5,202C 491.922,197.295 491.255,192.462 491.5,187.5 Z"/></g>
<g><path style="opacity:1" fill="#6a4f53" d="M 444.5,219.5 C 446.346,221.03 447.346,223.03 447.5,225.5C 445.654,223.97 444.654,221.97 444.5,219.5 Z"/></g>
<g><path style="opacity:1" fill="#fdd0d1" d="M 2.5,211.5 C 2.14968,217.949 2.81634,224.282 4.5,230.5C 3.93205,236.083 4.76538,236.417 7,231.5C 15.3098,233.373 23.8098,234.207 32.5,234C 31.1667,233 31.1667,232 32.5,231C 30.873,231.43 29.373,231.596 28,231.5C 28.0773,230.262 27.9106,229.262 27.5,228.5C 25.6182,232.351 24.2848,232.018 23.5,227.5C 23.737,224.937 24.237,224.937 25,227.5C 28.3563,225.144 29.6896,222.144 29,218.5C 29.6708,217.748 30.5041,217.414 31.5,217.5C 31.1203,226.578 34.787,233.411 42.5,238C 50.0144,242.258 57.6811,246.258 65.5,250C 74.1839,252.433 82.6839,255.266 91,258.5C 92.8122,258.507 94.3122,257.84 95.5,256.5C 96.8936,251.141 98.3936,245.807 100,240.5C 102.727,234.985 105.561,229.652 108.5,224.5C 111.07,225.484 111.07,226.651 108.5,228C 110.833,229.243 111.5,230.909 110.5,233C 112.259,233.798 113.926,233.631 115.5,232.5C 114.691,230.929 114.357,229.262 114.5,227.5C 115.5,227.5 116.5,227.5 117.5,227.5C 117.853,230.69 119.186,233.356 121.5,235.5C 116.528,247.102 111.861,258.768 107.5,270.5C 106.06,269.637 104.726,269.637 103.5,270.5C 102.359,273.062 101.526,275.728 101,278.5C 99.3066,279.184 97.8066,280.184 96.5,281.5C 96.1667,280.667 95.8333,279.833 95.5,279C 97.3649,274.31 97.8649,269.476 97,264.5C 96.0467,267.432 95.5467,270.432 95.5,273.5C 77.4969,273.667 59.4969,273.5 41.5,273C 40.5838,272.626 39.7504,272.126 39,271.5C 37.874,272.944 36.374,273.61 34.5,273.5C 31.9432,272.03 29.4432,271.363 27,271.5C 23.6699,274.011 19.8365,275.011 15.5,274.5C 15.728,272.645 15.0613,271.812 13.5,272C 10.8335,280.534 8.50013,280.368 6.5,271.5C 5.5,273.5 4.5,275.5 3.5,277.5C 2.22343,274.966 2.22343,272.466 3.5,270C 2.28147,267.677 0.94814,265.51 -0.5,263.5C -0.5,251.5 -0.5,239.5 -0.5,227.5C 0.5,222.167 1.5,216.833 2.5,211.5 Z"/></g>
<g><path style="opacity:1" fill="#f1c7ce" d="M 233.5,217.5 C 233.5,219.833 233.5,222.167 233.5,224.5C 235.167,224.5 236.833,224.5 238.5,224.5C 238.343,223.127 238.51,221.793 239,220.5C 239.414,220.957 239.914,221.291 240.5,221.5C 242.364,220.007 244.53,219.34 247,219.5C 250.368,221.878 253.202,221.545 255.5,218.5C 255.833,219.167 256.167,219.833 256.5,220.5C 257.386,219.675 257.719,218.675 257.5,217.5C 261.214,223.908 265.214,230.241 269.5,236.5C 270.774,238.993 271.44,241.659 271.5,244.5C 267.44,244.485 263.44,244.985 259.5,246C 255.011,248.463 250.344,250.629 245.5,252.5C 238.494,247.996 230.827,245.163 222.5,244C 223.406,242.301 223.739,240.467 223.5,238.5C 227.788,232.047 231.121,225.047 233.5,217.5 Z"/></g>
<g><path style="opacity:1" fill="#5f4749" d="M 234.5,230.5 C 234.5,233.833 234.5,237.167 234.5,240.5C 232.41,237.069 232.41,233.736 234.5,230.5 Z"/></g>
<g><path style="opacity:1" fill="#140c0c" d="M 234.5,240.5 C 234.5,237.167 234.5,233.833 234.5,230.5C 235.415,228.246 236.748,226.246 238.5,224.5C 245.744,221.177 252.244,222.177 258,227.5C 259.485,243.349 252.651,248.849 237.5,244C 236.29,242.961 235.29,241.794 234.5,240.5 Z"/></g>
<g><path style="opacity:1" fill="#f7cad2" d="M 249.5,241.5 C 246.119,241.54 242.786,241.207 239.5,240.5C 236.329,235.196 237.329,230.696 242.5,227C 245.482,226.502 248.482,226.335 251.5,226.5C 252.158,229.156 252.825,231.822 253.5,234.5C 253.423,237.665 252.09,239.999 249.5,241.5 Z"/></g>
<g><path style="opacity:1" fill="#fbcfd1" d="M 499.5,247.5 C 499.5,251.167 499.5,254.833 499.5,258.5C 498.517,262.964 497.183,267.464 495.5,272C 495.164,273.03 494.497,273.53 493.5,273.5C 492.903,266.136 489.237,260.969 482.5,258C 476.167,257.333 469.833,257.333 463.5,258C 453.546,262.159 443.213,264.992 432.5,266.5C 432.5,267.5 432.5,268.5 432.5,269.5C 431.167,269.5 429.833,269.5 428.5,269.5C 427.118,265.476 425.785,261.476 424.5,257.5C 424.132,253.658 423.132,249.991 421.5,246.5C 421.745,244.078 421.745,241.745 421.5,239.5C 423.006,238.253 424.506,238.253 426,239.5C 426.415,242.707 426.082,245.707 425,248.5C 426.898,245.87 428.731,245.537 430.5,247.5C 431.429,246.311 431.762,244.978 431.5,243.5C 452.833,243.5 474.167,243.5 495.5,243.5C 495.5,244.833 495.5,246.167 495.5,247.5C 496.833,247.5 498.167,247.5 499.5,247.5 Z"/></g>
<g><path style="opacity:1" fill="#130d0d" d="M 269.5,236.5 C 270.496,236.414 271.329,236.748 272,237.5C 272.721,242.75 275.221,243.75 279.5,240.5C 281.103,241.793 282.769,242.793 284.5,243.5C 280.629,243.185 276.962,243.518 273.5,244.5C 272.199,245.884 272.199,247.384 273.5,249C 275.473,249.495 277.473,249.662 279.5,249.5C 280.609,250.29 281.942,250.79 283.5,251C 282.643,251.689 281.977,252.522 281.5,253.5C 279.678,253.463 277.678,253.796 275.5,254.5C 275.719,253.325 275.386,252.325 274.5,251.5C 273.702,251.957 273.369,252.624 273.5,253.5C 272.596,252.791 272.263,251.791 272.5,250.5C 264.313,249.879 256.979,252.046 250.5,257C 256.379,263.912 260.379,271.912 262.5,281C 261.105,283.679 260.439,286.512 260.5,289.5C 257.265,298.578 251.932,306.412 244.5,313C 243.5,313.667 242.5,313.667 241.5,313C 240.614,311.385 239.614,309.885 238.5,308.5C 229.966,295.56 228.299,281.727 233.5,267C 236.131,264.209 238.131,261.042 239.5,257.5C 234.031,253.008 227.698,250.675 220.5,250.5C 220.825,258.352 220.492,266.018 219.5,273.5C 219.5,265.833 219.5,258.167 219.5,250.5C 214.901,250.2 210.401,250.533 206,251.5C 204.639,249.972 203.472,248.305 202.5,246.5C 202.719,244.085 204.052,243.085 206.5,243.5C 209.977,242.677 213.644,242.177 217.5,242C 219.405,240.579 221.405,239.412 223.5,238.5C 223.739,240.467 223.406,242.301 222.5,244C 230.827,245.163 238.494,247.996 245.5,252.5C 250.344,250.629 255.011,248.463 259.5,246C 263.44,244.985 267.44,244.485 271.5,244.5C 271.44,241.659 270.774,238.993 269.5,236.5 Z"/></g>
<g><path style="opacity:1" fill="#f9d0d3" d="M 206.5,243.5 C 210.846,243.334 215.179,243.501 219.5,244C 220.38,245.356 220.714,246.856 220.5,248.5C 215.438,248.726 210.438,248.392 205.5,247.5C 205.433,246.041 205.766,244.708 206.5,243.5 Z"/></g>
<g><path style="opacity:1" fill="#8c7577" d="M 239.5,240.5 C 242.786,241.207 246.119,241.54 249.5,241.5C 248.378,242.156 247.045,242.489 245.5,242.5C 243.117,242.639 241.117,241.972 239.5,240.5 Z"/></g>
<g><path style="opacity:1" fill="#f8cfd3" d="M 284.5,243.5 C 285.72,245.284 285.72,246.95 284.5,248.5C 281.15,248.665 277.817,248.498 274.5,248C 273.663,246.989 273.33,245.822 273.5,244.5C 276.962,243.518 280.629,243.185 284.5,243.5 Z"/></g>
<g><path style="opacity:1" fill="#ac8c91" d="M 205.5,247.5 C 210.438,248.392 215.438,248.726 220.5,248.5C 216.019,249.648 211.352,249.815 206.5,249C 205.944,248.617 205.611,248.117 205.5,247.5 Z"/></g>
<g><path style="opacity:1" fill="#ae8c90" d="M 273.5,244.5 C 273.33,245.822 273.663,246.989 274.5,248C 277.817,248.498 281.15,248.665 284.5,248.5C 283.081,249.451 281.415,249.784 279.5,249.5C 277.473,249.662 275.473,249.495 273.5,249C 272.199,247.384 272.199,245.884 273.5,244.5 Z"/></g>
<g><path style="opacity:1" fill="#f7cdce" d="M 409.5,222.5 C 404.315,223.598 400.315,226.431 397.5,231C 398.63,234.307 400.463,237.14 403,239.5C 406.474,246.976 409.474,254.643 412,262.5C 414.121,265.717 415.954,269.051 417.5,272.5C 416.5,272.5 415.5,272.5 414.5,272.5C 414.41,269.654 413.244,267.321 411,265.5C 410.735,267.163 411.235,268.663 412.5,270C 410.24,270.044 408.24,269.211 406.5,267.5C 404.918,269.585 402.918,271.085 400.5,272C 401.167,272.333 401.833,272.667 402.5,273C 401.484,273.519 400.818,274.353 400.5,275.5C 401.072,277.687 401.072,280.021 400.5,282.5C 399.061,274.991 397.061,267.491 394.5,260C 390.825,250.45 386.491,241.283 381.5,232.5C 384.733,233.987 387.066,232.987 388.5,229.5C 389.728,232.071 391.728,233.405 394.5,233.5C 394.421,232.07 394.754,230.736 395.5,229.5C 394.15,227.98 392.817,227.313 391.5,227.5C 392.514,222.601 394.014,222.601 396,227.5C 396.667,226.167 397.333,226.167 398,227.5C 398.862,225.913 399.529,224.246 400,222.5C 403.095,223.395 406.262,223.395 409.5,222.5 Z"/></g>
<g><path style="opacity:1" fill="#f7cfcd" d="M 273.5,253.5 C 273.354,269.355 273.354,285.022 273.5,300.5C 273.661,305.37 273.328,310.036 272.5,314.5C 271.851,303.634 271.018,292.634 270,281.5C 269,280.167 268,278.833 267,277.5C 265.353,281.738 263.853,286.071 262.5,290.5C 261.817,290.137 261.15,289.804 260.5,289.5C 260.439,286.512 261.105,283.679 262.5,281C 260.379,271.912 256.379,263.912 250.5,257C 256.979,252.046 264.313,249.879 272.5,250.5C 272.263,251.791 272.596,252.791 273.5,253.5 Z"/></g>
<g><path style="opacity:1" fill="#f9d3cc" d="M 244.5,260.5 C 254.511,270.885 256.678,282.885 251,296.5C 248.608,299.228 246.608,302.228 245,305.5C 237.725,294.853 235.725,283.186 239,270.5C 241.639,267.55 243.473,264.217 244.5,260.5 Z"/></g>
<g><path style="opacity:1" fill="#695751" d="M 273.5,253.5 C 274.724,269.011 274.724,284.678 273.5,300.5C 273.354,285.022 273.354,269.355 273.5,253.5 Z"/></g>
<g><path style="opacity:1" fill="#fbd5cc" d="M -0.5,263.5 C 0.94814,265.51 2.28147,267.677 3.5,270C 2.22343,272.466 2.22343,274.966 3.5,277.5C 4.5,275.5 5.5,273.5 6.5,271.5C 8.50013,280.368 10.8335,280.534 13.5,272C 15.0613,271.812 15.728,272.645 15.5,274.5C 19.8365,275.011 23.6699,274.011 27,271.5C 29.4432,271.363 31.9432,272.03 34.5,273.5C 36.374,273.61 37.874,272.944 39,271.5C 39.7504,272.126 40.5838,272.626 41.5,273C 59.4969,273.5 77.4969,273.667 95.5,273.5C 95.5467,270.432 96.0467,267.432 97,264.5C 97.8649,269.476 97.3649,274.31 95.5,279C 95.8333,279.833 96.1667,280.667 96.5,281.5C 97.8066,280.184 99.3066,279.184 101,278.5C 101.526,275.728 102.359,273.062 103.5,270.5C 104.726,269.637 106.06,269.637 107.5,270.5C 105.015,281.433 103.015,292.433 101.5,303.5C 100.662,303.842 100.328,304.508 100.5,305.5C 99.8826,305.389 99.3826,305.056 99,304.5C 97.4443,305.52 96.2776,306.853 95.5,308.5C 96.1689,311.028 97.0022,311.028 98,308.5C 98.3108,310.556 98.8108,312.556 99.5,314.5C 98.7579,315.287 97.9246,315.953 97,316.5C 90.3698,316.587 83.5365,316.421 76.5,316C 73.5488,315.904 70.8822,315.071 68.5,313.5C 66.5041,314.61 64.6708,314.276 63,312.5C 59.5268,313.043 56.1935,314.043 53,315.5C 51.2859,314.075 49.9525,314.408 49,316.5C 45.068,314.729 41.068,314.396 37,315.5C 36.2496,314.874 35.4162,314.374 34.5,314C 29.1667,313.667 23.8333,313.333 18.5,313C 14.5834,311.149 11.75,308.315 10,304.5C 8.97827,305.354 8.14494,306.354 7.5,307.5C 8.92132,311.028 9.58799,314.694 9.5,318.5C 7.32044,313.824 5.82044,308.824 5,303.5C 2.91726,292.398 1.08393,281.398 -0.5,270.5C -0.5,268.167 -0.5,265.833 -0.5,263.5 Z"/></g>
<g><path style="opacity:1" fill="#fed7cb" d="M 492.5,307.5 C 492.5,307.833 492.5,308.167 492.5,308.5C 489.294,312.154 487.627,316.487 487.5,321.5C 485.255,320.172 484.922,318.339 486.5,316C 485.352,314.351 484.019,312.851 482.5,311.5C 481.604,314.144 480.771,316.81 480,319.5C 479.517,318.552 479.351,317.552 479.5,316.5C 458.167,316.5 436.833,316.5 415.5,316.5C 415.826,312.116 415.492,307.783 414.5,303.5C 414.046,307.607 414.046,311.607 414.5,315.5C 412.955,316.452 411.288,316.785 409.5,316.5C 409.407,311.384 408.574,306.384 407,301.5C 406.329,300.748 405.496,300.414 404.5,300.5C 404.621,296.273 404.955,291.94 405.5,287.5C 407.167,284.833 408.833,282.167 410.5,279.5C 411.314,281.766 411.814,284.1 412,286.5C 413.714,287.925 415.047,287.592 416,285.5C 416.5,286 417,286.5 417.5,287C 420.833,287.667 424.167,287.667 427.5,287C 426.483,285.951 426.316,284.784 427,283.5C 428.582,285.711 430.749,287.045 433.5,287.5C 435.326,287.08 437.326,287.08 439.5,287.5C 439.635,285.076 439.968,283.076 440.5,281.5C 442.226,283.03 444.226,284.03 446.5,284.5C 447.386,285.325 447.719,286.325 447.5,287.5C 450.607,287.285 453.441,287.285 456,287.5C 456.5,287 457,286.5 457.5,286C 454.58,284.766 451.58,283.766 448.5,283C 447.663,281.989 447.33,280.822 447.5,279.5C 451.145,280.05 454.311,280.05 457,279.5C 458.53,280.92 460.363,281.92 462.5,282.5C 463.185,284.547 464.351,286.214 466,287.5C 474.478,287.194 482.978,287.194 491.5,287.5C 491.354,285.058 492.187,284.391 494,285.5C 494.167,287.333 494.333,289.167 494.5,291C 492.951,296.303 492.284,301.803 492.5,307.5 Z"/></g>
<g><path style="opacity:1" fill="#070404" d="M 44.5,300.5 C 55.7549,299.891 66.7549,300.558 77.5,302.5C 78.1239,302.917 78.4573,303.584 78.5,304.5C 77.7822,308.456 75.4489,310.623 71.5,311C 54.1018,313.264 36.7684,312.931 19.5,310C 15.3996,307.533 11.5662,304.699 8,301.5C 3.69652,289.908 7.36318,282.575 19,279.5C 24.0717,281.036 28.7383,283.369 33,286.5C 35.673,290.547 36.173,294.881 34.5,299.5C 37.9023,299.342 41.2356,299.676 44.5,300.5 Z"/></g>
<g><path style="opacity:1" fill="#fad4ce" d="M 499.5,258.5 C 499.5,262.833 499.5,267.167 499.5,271.5C 498.029,283.657 495.696,295.657 492.5,307.5C 492.284,301.803 492.951,296.303 494.5,291C 494.333,289.167 494.167,287.333 494,285.5C 492.187,284.391 491.354,285.058 491.5,287.5C 482.978,287.194 474.478,287.194 466,287.5C 464.351,286.214 463.185,284.547 462.5,282.5C 460.363,281.92 458.53,280.92 457,279.5C 454.311,280.05 451.145,280.05 447.5,279.5C 447.33,280.822 447.663,281.989 448.5,283C 451.58,283.766 454.58,284.766 457.5,286C 457,286.5 456.5,287 456,287.5C 453.441,287.285 450.607,287.285 447.5,287.5C 447.719,286.325 447.386,285.325 446.5,284.5C 444.226,284.03 442.226,283.03 440.5,281.5C 439.968,283.076 439.635,285.076 439.5,287.5C 437.326,287.08 435.326,287.08 433.5,287.5C 430.749,287.045 428.582,285.711 427,283.5C 426.316,284.784 426.483,285.951 427.5,287C 424.167,287.667 420.833,287.667 417.5,287C 417,286.5 416.5,286 416,285.5C 415.047,287.592 413.714,287.925 412,286.5C 411.814,284.1 411.314,281.766 410.5,279.5C 408.833,282.167 407.167,284.833 405.5,287.5C 404.955,291.94 404.621,296.273 404.5,300.5C 403.277,304.949 403.277,309.115 404.5,313C 403.184,313.528 402.517,313.028 402.5,311.5C 402.5,310.833 402.167,310.5 401.5,310.5C 402.833,308.5 402.833,306.5 401.5,304.5C 402.147,303.726 402.48,302.726 402.5,301.5C 401.955,295.005 401.288,288.672 400.5,282.5C 401.072,280.021 401.072,277.687 400.5,275.5C 400.818,274.353 401.484,273.519 402.5,273C 401.833,272.667 401.167,272.333 400.5,272C 402.918,271.085 404.918,269.585 406.5,267.5C 408.24,269.211 410.24,270.044 412.5,270C 411.235,268.663 410.735,267.163 411,265.5C 413.244,267.321 414.41,269.654 414.5,272.5C 415.5,272.5 416.5,272.5 417.5,272.5C 417.5,273.167 417.833,273.5 418.5,273.5C 418.756,275.792 418.423,277.959 417.5,280C 421.592,281.632 425.592,281.798 429.5,280.5C 440.542,277.156 451.542,273.489 462.5,269.5C 467.617,282.872 476.451,287.205 489,282.5C 491.225,279.8 492.725,276.8 493.5,273.5C 494.497,273.53 495.164,273.03 495.5,272C 497.183,267.464 498.517,262.964 499.5,258.5 Z"/></g>
<g><path style="opacity:1" fill="#977d79" d="M 418.5,273.5 C 419.269,275.667 420.269,277.834 421.5,280C 424.146,280.497 426.813,280.664 429.5,280.5C 425.592,281.798 421.592,281.632 417.5,280C 418.423,277.959 418.756,275.792 418.5,273.5 Z"/></g>
<g><path style="opacity:1" fill="#f3cdc8" d="M 238.5,308.5 C 232.366,303.409 229.199,296.742 229,288.5C 227.294,289.308 226.461,290.641 226.5,292.5C 224.058,292.354 223.391,293.187 224.5,295C 222.854,297.229 222.521,299.563 223.5,302C 222.92,306.316 222.253,310.483 221.5,314.5C 221.823,307.978 221.49,301.645 220.5,295.5C 219.672,288.54 219.339,281.206 219.5,273.5C 220.492,266.018 220.825,258.352 220.5,250.5C 227.698,250.675 234.031,253.008 239.5,257.5C 238.131,261.042 236.131,264.209 233.5,267C 228.299,281.727 229.966,295.56 238.5,308.5 Z"/></g>
<g><path style="opacity:1" fill="#63534c" d="M 44.5,300.5 C 55.3206,299.505 66.3206,299.172 77.5,299.5C 77.5,300.5 77.5,301.5 77.5,302.5C 66.7549,300.558 55.7549,299.891 44.5,300.5 Z"/></g>
<g><path style="opacity:1" fill="#a08c82" d="M 220.5,295.5 C 221.49,301.645 221.823,307.978 221.5,314.5C 221.672,315.492 221.338,316.158 220.5,316.5C 220.5,316.167 220.5,315.833 220.5,315.5C 220.365,308.984 220.365,302.317 220.5,295.5 Z"/></g>
<g><path style="opacity:1" fill="#fedac9" d="M 272.5,314.5 C 272.5,314.833 272.5,315.167 272.5,315.5C 315.33,316.499 358.33,316.832 401.5,316.5C 401.5,315.167 401.5,313.833 401.5,312.5C 401.5,311.833 401.833,311.5 402.5,311.5C 402.517,313.028 403.184,313.528 404.5,313C 403.277,309.115 403.277,304.949 404.5,300.5C 405.496,300.414 406.329,300.748 407,301.5C 408.574,306.384 409.407,311.384 409.5,316.5C 411.288,316.785 412.955,316.452 414.5,315.5C 414.046,311.607 414.046,307.607 414.5,303.5C 415.492,307.783 415.826,312.116 415.5,316.5C 436.833,316.5 458.167,316.5 479.5,316.5C 479.351,317.552 479.517,318.552 480,319.5C 480.771,316.81 481.604,314.144 482.5,311.5C 484.019,312.851 485.352,314.351 486.5,316C 484.922,318.339 485.255,320.172 487.5,321.5C 484.615,326.714 482.782,332.381 482,338.5C 481.782,335.574 481.282,332.74 480.5,330C 480.957,329.586 481.291,329.086 481.5,328.5C 326.501,327.5 171.501,327.167 16.5,327.5C 15.6891,333.231 17.1891,338.231 21,342.5C 21.2589,345.587 21.7589,348.587 22.5,351.5C 23.7866,354.406 24.7866,357.406 25.5,360.5C 18.4129,347.249 13.0796,333.249 9.5,318.5C 9.58799,314.694 8.92132,311.028 7.5,307.5C 8.14494,306.354 8.97827,305.354 10,304.5C 11.75,308.315 14.5834,311.149 18.5,313C 23.8333,313.333 29.1667,313.667 34.5,314C 35.4162,314.374 36.2496,314.874 37,315.5C 41.068,314.396 45.068,314.729 49,316.5C 49.9525,314.408 51.2859,314.075 53,315.5C 56.1935,314.043 59.5268,313.043 63,312.5C 64.6708,314.276 66.5041,314.61 68.5,313.5C 70.8822,315.071 73.5488,315.904 76.5,316C 83.5365,316.421 90.3698,316.587 97,316.5C 97.9246,315.953 98.7579,315.287 99.5,314.5C 98.8108,312.556 98.3108,310.556 98,308.5C 97.0022,311.028 96.1689,311.028 95.5,308.5C 96.2776,306.853 97.4443,305.52 99,304.5C 99.3826,305.056 99.8826,305.389 100.5,305.5C 100.5,309.167 100.5,312.833 100.5,316.5C 140.5,316.5 180.5,316.5 220.5,316.5C 221.338,316.158 221.672,315.492 221.5,314.5C 222.253,310.483 222.92,306.316 223.5,302C 222.521,299.563 222.854,297.229 224.5,295C 223.391,293.187 224.058,292.354 226.5,292.5C 226.461,290.641 227.294,289.308 229,288.5C 229.199,296.742 232.366,303.409 238.5,308.5C 239.614,309.885 240.614,311.385 241.5,313C 242.5,313.667 243.5,313.667 244.5,313C 251.932,306.412 257.265,298.578 260.5,289.5C 261.15,289.804 261.817,290.137 262.5,290.5C 263.853,286.071 265.353,281.738 267,277.5C 268,278.833 269,280.167 270,281.5C 271.018,292.634 271.851,303.634 272.5,314.5 Z"/></g>
<g><path style="opacity:1" fill="#4f423c" d="M 401.5,304.5 C 402.833,306.5 402.833,308.5 401.5,310.5C 400.167,308.5 400.167,306.5 401.5,304.5 Z"/></g>
<g><path style="opacity:1" fill="#604d46" d="M 101.5,303.5 C 101.5,307.5 101.5,311.5 101.5,315.5C 141.167,315.5 180.833,315.5 220.5,315.5C 220.5,315.833 220.5,316.167 220.5,316.5C 180.5,316.5 140.5,316.5 100.5,316.5C 100.5,312.833 100.5,309.167 100.5,305.5C 100.328,304.508 100.662,303.842 101.5,303.5 Z"/></g>
<g><path style="opacity:1" fill="#66534c" d="M 401.5,312.5 C 401.5,313.833 401.5,315.167 401.5,316.5C 358.33,316.832 315.33,316.499 272.5,315.5C 315.167,315.5 357.833,315.5 400.5,315.5C 400.263,314.209 400.596,313.209 401.5,312.5 Z"/></g>
<g><path style="opacity:1" fill="#fedec5" d="M 492.5,308.5 C 485.113,339.596 472.113,367.929 453.5,393.5C 456.288,388.844 458.455,383.844 460,378.5C 462.38,376.955 464.214,374.955 465.5,372.5C 469.171,366.117 472.504,359.45 475.5,352.5C 474.326,349.846 472.826,348.18 471,347.5C 469.736,349.607 467.903,350.607 465.5,350.5C 465.762,351.978 465.429,353.311 464.5,354.5C 463.5,354.167 462.833,353.5 462.5,352.5C 390.333,352.167 318.167,351.833 246,351.5C 173.359,351.503 100.859,352.17 28.5,353.5C 26.6505,351.591 24.6505,350.924 22.5,351.5C 21.7589,348.587 21.2589,345.587 21,342.5C 17.1891,338.231 15.6891,333.231 16.5,327.5C 171.501,327.167 326.501,327.5 481.5,328.5C 481.291,329.086 480.957,329.586 480.5,330C 481.282,332.74 481.782,335.574 482,338.5C 482.782,332.381 484.615,326.714 487.5,321.5C 487.627,316.487 489.294,312.154 492.5,308.5 Z"/></g>
<g><path style="opacity:1" fill="#fee1c2" d="M 465.5,372.5 C 465.949,370.023 465.283,368.023 463.5,366.5C 461.667,368.167 459.833,369.833 458,371.5C 455.997,365.709 452.83,365.042 448.5,369.5C 447.692,369.192 447.025,368.692 446.5,368C 311.972,367.831 177.472,367.331 43,366.5C 41.7202,366.613 40.8869,367.28 40.5,368.5C 41.5283,370.361 43.0283,371.695 45,372.5C 45.9461,374.956 45.4461,376.956 43.5,378.5C 41.8693,376.941 41.036,374.941 41,372.5C 39.5093,370.996 37.676,370.163 35.5,370C 34.3834,367.575 32.8834,365.409 31,363.5C 30.3076,364.025 29.8076,364.692 29.5,365.5C 31.2363,369.972 33.7363,373.972 37,377.5C 38.2049,380.562 39.3716,383.562 40.5,386.5C 34.4929,378.495 29.4929,369.828 25.5,360.5C 24.7866,357.406 23.7866,354.406 22.5,351.5C 24.6505,350.924 26.6505,351.591 28.5,353.5C 100.859,352.17 173.359,351.503 246,351.5C 318.167,351.833 390.333,352.167 462.5,352.5C 462.833,353.5 463.5,354.167 464.5,354.5C 465.429,353.311 465.762,351.978 465.5,350.5C 467.903,350.607 469.736,349.607 471,347.5C 472.826,348.18 474.326,349.846 475.5,352.5C 472.504,359.45 469.171,366.117 465.5,372.5 Z"/></g>
<g><path style="opacity:1" fill="#fee4be" d="M 465.5,372.5 C 464.214,374.955 462.38,376.955 460,378.5C 458.455,383.844 456.288,388.844 453.5,393.5C 451.262,398.071 448.262,402.071 444.5,405.5C 444.5,404.167 444.5,402.833 444.5,401.5C 442.332,400.821 440.332,399.821 438.5,398.5C 436.617,398.876 435.117,399.876 434,401.5C 372.376,400.169 310.543,399.502 248.5,399.5C 186.597,399.501 124.763,399.834 63,400.5C 61.3217,399.318 61.4883,398.152 63.5,397C 63.3333,396.5 63.1667,396 63,395.5C 62.2588,396.641 61.4255,396.641 60.5,395.5C 59.0941,391.092 56.0941,389.092 51.5,389.5C 52.4215,392.126 53.4215,394.793 54.5,397.5C 53.8333,398.5 53.1667,399.5 52.5,400.5C 54.2433,402.321 55.7433,404.321 57,406.5C 57.2508,402.2 58.7508,401.533 61.5,404.5C 61.2488,406.17 60.5822,407.67 59.5,409C 63.6179,408.198 64.9513,409.865 63.5,414C 65.0854,416.069 66.4187,418.236 67.5,420.5C 56.9847,410.324 47.9847,398.99 40.5,386.5C 39.3716,383.562 38.2049,380.562 37,377.5C 33.7363,373.972 31.2363,369.972 29.5,365.5C 29.8076,364.692 30.3076,364.025 31,363.5C 32.8834,365.409 34.3834,367.575 35.5,370C 37.676,370.163 39.5093,370.996 41,372.5C 41.036,374.941 41.8693,376.941 43.5,378.5C 45.4461,376.956 45.9461,374.956 45,372.5C 43.0283,371.695 41.5283,370.361 40.5,368.5C 40.8869,367.28 41.7202,366.613 43,366.5C 177.472,367.331 311.972,367.831 446.5,368C 447.025,368.692 447.692,369.192 448.5,369.5C 452.83,365.042 455.997,365.709 458,371.5C 459.833,369.833 461.667,368.167 463.5,366.5C 465.283,368.023 465.949,370.023 465.5,372.5 Z"/></g>
<g><path style="opacity:1" fill="#fee7bb" d="M 444.5,405.5 C 440.865,411.101 436.532,416.101 431.5,420.5C 432.71,418.448 433.71,416.282 434.5,414C 433.237,412.009 431.903,410.009 430.5,408C 308.5,407.5 186.5,407.333 64.5,407.5C 64.8841,405.335 64.2174,403.668 62.5,402.5C 61.7025,402.957 61.3691,403.624 61.5,404.5C 58.7508,401.533 57.2508,402.2 57,406.5C 55.7433,404.321 54.2433,402.321 52.5,400.5C 53.1667,399.5 53.8333,398.5 54.5,397.5C 53.4215,394.793 52.4215,392.126 51.5,389.5C 56.0941,389.092 59.0941,391.092 60.5,395.5C 61.4255,396.641 62.2588,396.641 63,395.5C 63.1667,396 63.3333,396.5 63.5,397C 61.4883,398.152 61.3217,399.318 63,400.5C 124.763,399.834 186.597,399.501 248.5,399.5C 310.543,399.502 372.376,400.169 434,401.5C 435.117,399.876 436.617,398.876 438.5,398.5C 440.332,399.821 442.332,400.821 444.5,401.5C 444.5,402.833 444.5,404.167 444.5,405.5 Z"/></g>
<g><path style="opacity:1" fill="#feebb9" d="M 431.5,420.5 C 424.073,429.265 415.739,436.932 406.5,443.5C 406.167,440.5 407.5,439.167 410.5,439.5C 410.5,438.167 410.5,436.833 410.5,435.5C 407.471,434.005 404.304,432.672 401,431.5C 400.167,431.833 399.333,432.167 398.5,432.5C 401.196,433.851 403.53,435.684 405.5,438C 404.892,438.87 404.059,439.37 403,439.5C 300.94,437.507 198.773,436.841 96.5,437.5C 95.6601,429.79 94.3268,429.79 92.5,437.5C 88.8141,437.13 87.8141,438.463 89.5,441.5C 81.5344,435.202 74.2011,428.202 67.5,420.5C 66.4187,418.236 65.0854,416.069 63.5,414C 64.9513,409.865 63.6179,408.198 59.5,409C 60.5822,407.67 61.2488,406.17 61.5,404.5C 61.3691,403.624 61.7025,402.957 62.5,402.5C 64.2174,403.668 64.8841,405.335 64.5,407.5C 186.5,407.333 308.5,407.5 430.5,408C 431.903,410.009 433.237,412.009 434.5,414C 433.71,416.282 432.71,418.448 431.5,420.5 Z"/></g>
<g><path style="opacity:1" fill="#feeeb6" d="M 406.5,443.5 C 396.885,452.312 386.218,459.645 374.5,465.5C 376.846,461.198 380.513,458.865 385.5,458.5C 385.561,456.408 386.561,454.908 388.5,454C 386.604,451.061 384.27,448.561 381.5,446.5C 378.335,446.551 375.002,446.718 371.5,447C 370.333,448.167 369.167,449.333 368,450.5C 367.308,449.975 366.808,449.308 366.5,448.5C 285.658,447.508 204.992,447.174 124.5,447.5C 123.738,448.628 123.071,449.795 122.5,451C 120.19,451.497 117.857,451.663 115.5,451.5C 115.532,446.787 113.199,445.287 108.5,447C 108.043,447.414 107.709,447.914 107.5,448.5C 111.007,449.841 112.007,452.175 110.5,455.5C 112.862,456.271 115.196,457.105 117.5,458C 120.542,461.249 124.209,463.583 128.5,465C 127.748,465.671 127.414,466.504 127.5,467.5C 113.784,460.313 101.117,451.646 89.5,441.5C 87.8141,438.463 88.8141,437.13 92.5,437.5C 94.3268,429.79 95.6601,429.79 96.5,437.5C 198.773,436.841 300.94,437.507 403,439.5C 404.059,439.37 404.892,438.87 405.5,438C 403.53,435.684 401.196,433.851 398.5,432.5C 399.333,432.167 400.167,431.833 401,431.5C 404.304,432.672 407.471,434.005 410.5,435.5C 410.5,436.833 410.5,438.167 410.5,439.5C 407.5,439.167 406.167,440.5 406.5,443.5 Z"/></g>
<g><path style="opacity:1" fill="#fef1b3" d="M 374.5,465.5 C 363.761,472.87 352.094,478.536 339.5,482.5C 342.563,481.271 344.896,479.104 346.5,476C 350.878,475.321 355.211,474.488 359.5,473.5C 359.649,472.448 359.483,471.448 359,470.5C 354.097,472.017 353.597,471.35 357.5,468.5C 356.833,468.167 356.167,467.833 355.5,467.5C 350.458,469.916 346.124,472.416 342.5,475C 340.645,475.422 338.811,475.922 337,476.5C 307.196,475.839 277.362,475.506 247.5,475.5C 217.688,475.508 188.021,476.174 158.5,477.5C 150.618,475.013 150.952,473.679 159.5,473.5C 159.762,472.022 159.429,470.689 158.5,469.5C 150.519,473.669 142.853,473.169 135.5,468C 134.167,467.333 132.833,467.333 131.5,468C 137.007,472.586 143.341,475.253 150.5,476C 151.699,477.694 153.032,479.194 154.5,480.5C 144.79,477.477 135.79,473.144 127.5,467.5C 127.414,466.504 127.748,465.671 128.5,465C 124.209,463.583 120.542,461.249 117.5,458C 115.196,457.105 112.862,456.271 110.5,455.5C 112.007,452.175 111.007,449.841 107.5,448.5C 107.709,447.914 108.043,447.414 108.5,447C 113.199,445.287 115.532,446.787 115.5,451.5C 117.857,451.663 120.19,451.497 122.5,451C 123.071,449.795 123.738,448.628 124.5,447.5C 204.992,447.174 285.658,447.508 366.5,448.5C 366.808,449.308 367.308,449.975 368,450.5C 369.167,449.333 370.333,448.167 371.5,447C 375.002,446.718 378.335,446.551 381.5,446.5C 384.27,448.561 386.604,451.061 388.5,454C 386.561,454.908 385.561,456.408 385.5,458.5C 380.513,458.865 376.846,461.198 374.5,465.5 Z"/></g>
<g><path style="opacity:1" fill="#fef5af" d="M 339.5,482.5 C 317.607,491.306 294.941,496.973 271.5,499.5C 256.833,499.5 242.167,499.5 227.5,499.5C 202.16,497.082 177.827,490.748 154.5,480.5C 153.032,479.194 151.699,477.694 150.5,476C 143.341,475.253 137.007,472.586 131.5,468C 132.833,467.333 134.167,467.333 135.5,468C 142.853,473.169 150.519,473.669 158.5,469.5C 159.429,470.689 159.762,472.022 159.5,473.5C 150.952,473.679 150.618,475.013 158.5,477.5C 188.021,476.174 217.688,475.508 247.5,475.5C 277.362,475.506 307.196,475.839 337,476.5C 338.811,475.922 340.645,475.422 342.5,475C 346.124,472.416 350.458,469.916 355.5,467.5C 356.167,467.833 356.833,468.167 357.5,468.5C 353.597,471.35 354.097,472.017 359,470.5C 359.483,471.448 359.649,472.448 359.5,473.5C 355.211,474.488 350.878,475.321 346.5,476C 344.896,479.104 342.563,481.271 339.5,482.5 Z"/></g>
</svg>
